<svg width="96" height="102" viewBox="0 0 96 102" fill="none" xmlns="http://www.w3.org/2000/svg">
<path d="M2.99998 16H14.3437C14.4508 16 14.5419 16.0511 14.6462 16.0623C14.8637 16.085 15.0671 16.1218 15.2709 16.1911C15.4416 16.2487 15.5956 16.3197 15.7511 16.4059C15.9301 16.5053 16.0915 16.6132 16.2475 16.7475C16.391 16.8706 16.5128 17.0017 16.6315 17.1495C16.7538 17.3017 16.8583 17.4567 16.9511 17.6331C17.047 17.8143 17.1144 18.0002 17.1732 18.201C17.2052 18.3099 17.2743 18.3974 17.2948 18.5117L19.0128 28.0949L92.4272 32.4737C92.7085 32.4538 92.9565 32.4957 93.271 32.5256C94.9018 32.6771 96.1127 34.1363 95.9917 35.8028C95.9819 35.9284 95.9663 36.05 95.9428 36.1696L90.8276 64.6438C89.6577 69.0592 86.0542 73.5165 80.6343 73.5165H27.1563L28.3014 79.9035H73.3004C78.9976 79.9035 83.6343 84.6359 83.6343 90.4507C83.6343 96.2676 78.9976 101 73.3004 101C67.6031 101 62.9664 96.2676 62.9664 90.4507C62.9664 88.8662 63.3353 87.3771 63.9516 86.0273H36.3194C36.9356 87.3771 37.3045 88.8662 37.3045 90.4507C37.3045 96.2676 32.6678 101 26.9706 101C21.2733 101 16.6366 96.2676 16.6366 90.4507C16.6366 86.3161 19.0023 82.7653 22.4051 81.0373L11.8429 22.1238H2.99998C1.34374 22.1238 0 20.7523 0 19.0619C0 17.3715 1.34374 16 2.99998 16ZM23.9115 55.4169L36.6243 55.6207L35.9319 48.101L22.5262 47.6909L23.9115 55.4169ZM87.4224 49.6766L74.7186 49.2878L73.8875 56.2178L86.2136 56.4154L87.4224 49.6766ZM70.7054 49.165L56.7419 48.7379V55.9429L69.867 56.1535L70.7054 49.165ZM56.7419 44.6516L71.1937 45.0939L72.117 37.3968L56.7419 36.4793V44.6516ZM52.7419 36.2406L38.781 35.4073L39.5838 44.1266L52.7419 44.5293V36.2406ZM56.7419 60.0265V67.3927H68.5189L69.3783 60.2291L56.7419 60.0265ZM52.7419 59.9624L41.0244 59.7748L41.7258 67.3927H52.7419V59.9624ZM52.7419 55.8789V48.6156L39.961 48.2243L40.648 55.685L52.7419 55.8789ZM21.7897 43.5821L35.5547 44.0033L34.7413 35.1664L20.1244 34.294L21.7897 43.5821ZM76.1165 37.6355L75.2071 45.2165L88.1516 45.6127C88.697 42.5882 89.1313 40.2377 89.5015 38.4341L76.1165 37.6355ZM84.98 63.2942L85.4834 60.4872L73.3985 60.2936L72.547 67.3927H80.6343C83.2046 67.3927 84.6363 64.5501 84.98 63.2942ZM37.708 67.3927L37.0008 59.7103L24.6456 59.5122L26.0584 67.3927H37.708ZM68.9664 90.4507C68.9664 92.8907 70.9098 94.8762 73.3004 94.8762C75.691 94.8762 77.6343 92.8907 77.6343 90.4507C77.6343 88.0108 75.691 86.0273 73.3004 86.0273C70.9098 86.0273 68.9664 88.0108 68.9664 90.4507ZM26.9706 94.8762C29.3612 94.8762 31.3045 92.8907 31.3045 90.4507C31.3045 88.0108 29.3612 86.0273 26.9706 86.0273C24.5799 86.0273 22.6366 88.0108 22.6366 90.4507C22.6366 92.8907 24.5799 94.8762 26.9706 94.8762Z" fill="white"/>
</svg>
