<svg width="96" height="98" viewBox="0 0 96 98" fill="none" xmlns="http://www.w3.org/2000/svg">
<path d="M37.1942 0.247883C31.815 1.4077 27.4557 5.50706 26.0559 10.7662C25.496 12.8259 25.596 16.6253 26.2359 18.605C27.0158 20.9846 28.0756 22.6844 29.8753 24.4841C32.4549 27.0637 35.4345 28.4435 38.9539 28.6834C47.6525 29.3033 54.8914 22.1045 54.3115 13.4058C54.1915 11.2662 53.4516 8.84654 52.3718 7.00683C51.392 5.36708 48.7724 2.78749 47.1326 1.86763C44.1731 0.227886 40.2737 -0.392015 37.1942 0.247883ZM42.1134 3.38739C44.0331 3.72734 46.3727 4.96715 47.8325 6.42692C50.0722 8.66657 51.092 11.1262 51.092 14.3657C51.092 17.5652 50.0722 20.0648 47.8725 22.2444C45.6929 24.4441 43.1932 25.4639 39.9937 25.4639C36.7543 25.4639 34.2946 24.4441 32.055 22.2045C27.3157 17.4652 27.9156 9.28647 33.3148 5.44707C36.0944 3.46738 38.8939 2.80748 42.1134 3.38739Z" fill="white"/>
<path d="M35.6944 8.46657L35.1945 8.9465V14.3656V19.7848L35.6944 20.2647C35.9744 20.5647 36.3943 20.7646 36.7343 20.7646C37.0342 20.7447 39.6338 19.5648 42.4934 18.1051C46.9127 15.8654 47.7126 15.3855 47.8725 14.9056C48.3125 13.6458 48.1125 13.4658 42.4934 10.6262C39.6338 9.16646 37.0342 7.98664 36.7343 7.96665C36.3943 7.96665 35.9744 8.16662 35.6944 8.46657ZM42.5934 14.3656C42.5934 14.4256 41.6535 14.9456 40.4937 15.5255L38.394 16.5653V14.3656V12.166L40.4937 13.2058C41.6535 13.7857 42.5934 14.3057 42.5934 14.3656Z" fill="white"/>
<path d="M70.389 1.82766C69.4092 2.14761 67.7294 3.86734 67.4295 4.88718C67.2895 5.34711 67.1895 6.72689 67.1895 7.9467C67.1895 10.0464 67.2095 10.2063 67.6894 10.6663C67.9894 10.9862 68.4093 11.1662 68.7893 11.1662C69.1692 11.1662 69.5891 10.9862 69.8891 10.6663C70.369 10.2063 70.389 10.0464 70.389 7.9667C70.389 5.88702 70.409 5.72705 70.8889 5.26712L71.3689 4.7672H81.5873H91.8057L92.2856 5.26712L92.7855 5.74704V15.9654V26.1838L92.2856 26.6638L91.8057 27.1637H81.5873H71.3689L70.8889 26.6638L70.389 26.1838V20.7647V15.3455L69.8891 14.8656C69.5891 14.5457 69.1692 14.3657 68.7893 14.3657C68.4093 14.3657 67.9894 14.5457 67.6894 14.8656L67.1895 15.3455V20.7847C67.1895 24.4641 67.2695 26.4838 67.4295 27.0437C67.7494 28.1435 69.4092 29.8033 70.509 30.1232C71.1089 30.3032 74.1284 30.3632 81.6273 30.3632C93.4254 30.3632 93.1854 30.4032 94.6452 28.7634C95.1251 28.2435 95.6251 27.4437 95.7451 27.0037C96.085 25.8839 96.085 6.047 95.7451 4.92717C95.6251 4.48724 95.1251 3.68737 94.6452 3.16745C93.1854 1.5277 93.4454 1.5677 81.5073 1.58769C74.5284 1.60769 70.8489 1.68768 70.389 1.82766Z" fill="white"/>
<path d="M81.5872 8.22657C80.6074 8.54652 78.9276 10.2663 78.6277 11.2861C78.4877 11.746 78.3877 12.6259 78.3877 13.2458V14.3656H77.2879C75.9481 14.3656 75.1882 14.9455 75.1882 15.9654C75.1882 16.9852 75.9481 17.5651 77.2879 17.5651H78.3877V20.2647C78.3877 22.8843 78.4077 23.0043 78.8877 23.4642C79.1876 23.7841 79.6075 23.9641 79.9875 23.9641C80.3674 23.9641 80.7874 23.7841 81.0873 23.4642C81.5672 23.0043 81.5872 22.8843 81.5872 20.2647V17.5651H82.6871C84.0269 17.5651 84.7867 16.9852 84.7867 15.9654C84.7867 14.9455 84.0269 14.3656 82.6871 14.3656H81.5872V13.2658C81.5872 12.3459 81.6672 12.066 82.0872 11.666C82.5471 11.1861 82.7071 11.1661 84.7867 11.1661C86.8664 11.1661 87.0264 11.1461 87.4863 10.6662C87.8063 10.3662 87.9862 9.9463 87.9862 9.56636C87.9862 9.18642 87.8063 8.76649 87.4863 8.46653C87.0264 7.98661 86.9064 7.96661 84.6468 7.98661C83.347 8.00661 81.9672 8.10659 81.5872 8.22657Z" fill="white"/>
<path d="M0.499922 16.4654L0 16.9453V30.3632V43.7811L0.499922 44.2611L0.979847 44.761H11.1983H21.4167L21.8966 44.2611L22.3965 43.7811V30.3632V16.9453L21.8966 16.4654L21.4167 15.9655H11.1983H0.979847L0.499922 16.4654ZM19.197 30.3632V41.5615H11.1983H3.1995V30.3632V19.165H11.1983H19.197V30.3632Z" fill="white"/>
<path d="M10.0984 22.8644C9.77848 23.1643 9.59851 23.5843 9.59851 23.9642C9.59851 24.3442 9.77848 24.7641 10.0984 25.064C10.5584 25.544 10.7183 25.564 12.798 25.564C14.8777 25.564 15.0377 25.544 15.4976 25.064C15.8175 24.7641 15.9975 24.3442 15.9975 23.9642C15.9975 23.5843 15.8175 23.1643 15.4976 22.8644C15.0377 22.3845 14.8777 22.3645 12.798 22.3645C10.7183 22.3645 10.5584 22.3845 10.0984 22.8644Z" fill="white"/>
<path d="M6.89891 29.2633C6.57896 29.5633 6.39899 29.9832 6.39899 30.3631C6.39899 30.7431 6.57896 31.163 6.89891 31.463C7.37883 31.9629 7.41883 31.9629 11.1982 31.9629C14.9776 31.9629 15.0176 31.9629 15.4976 31.463C15.8175 31.163 15.9975 30.7431 15.9975 30.3631C15.9975 29.9832 15.8175 29.5633 15.4976 29.2633C15.0176 28.7634 14.9776 28.7634 11.1982 28.7634C7.41883 28.7634 7.37883 28.7634 6.89891 29.2633Z" fill="white"/>
<path d="M6.89891 35.6622C6.57896 35.9622 6.39899 36.3821 6.39899 36.7621C6.39899 37.142 6.57896 37.5619 6.89891 37.8619C7.37883 38.3618 7.41883 38.3618 11.1982 38.3618C14.9776 38.3618 15.0176 38.3618 15.4976 37.8619C15.8175 37.5619 15.9975 37.142 15.9975 36.7621C15.9975 36.3821 15.8175 35.9622 15.4976 35.6622C15.0176 35.1623 14.9776 35.1623 11.1982 35.1623C7.41883 35.1623 7.37883 35.1623 6.89891 35.6622Z" fill="white"/>
<path d="M59.9306 25.8039C59.7506 25.9439 58.4309 27.6236 56.9911 29.5433C54.1715 33.3428 53.9915 33.7627 54.8914 34.6625C55.4113 35.2025 56.3112 35.3224 56.8511 34.9025C57.0311 34.7825 58.3509 33.1028 59.7906 31.1831C62.6102 27.3837 62.7902 26.9637 61.8903 26.0639C61.3704 25.524 60.4705 25.404 59.9306 25.8039Z" fill="white"/>
<path d="M63.1701 36.1623C61.2504 37.6021 59.5707 38.9219 59.4507 39.1018C59.0308 39.6418 59.1507 40.5416 59.6907 41.0615C60.5905 41.9614 61.0105 41.7814 64.8099 38.9619C66.7296 37.5221 68.4093 36.2023 68.5493 36.0223C68.9492 35.4824 68.8292 34.5825 68.2893 34.0626C67.3895 33.1628 66.9695 33.3427 63.1701 36.1623Z" fill="white"/>
<path d="M47.6925 35.4022C47.4726 35.5222 42.2934 39.7616 36.1543 44.8208C25.1161 53.9193 24.9961 53.9993 21.3567 56.099C17.3173 58.4186 16.4374 59.1385 15.6376 60.7583C15.1776 61.6981 15.0976 62.0981 15.0976 63.5578L15.1176 65.2776L13.9378 65.9575C11.8981 67.1573 10.8783 69.2769 11.3782 71.2566C11.9581 73.5563 13.7578 74.9561 16.1175 74.9561C17.1573 74.9561 17.5773 74.8361 18.6771 74.2562L19.9969 73.5563L20.8167 74.1362C22.8164 75.596 25.296 75.7359 27.5957 74.5361C28.3156 74.1562 28.9555 73.8362 29.0355 73.7962C29.0954 73.7562 29.8553 74.9761 30.7352 76.4958C31.5951 78.0156 32.6149 79.6153 32.9948 80.0353C34.8545 82.1149 38.134 82.1149 40.0137 80.0153C40.9536 78.9754 41.2535 78.0156 41.1536 76.4758C41.0936 75.376 40.9136 74.9761 39.4338 72.3765C38.534 70.7967 37.8341 69.4569 37.8741 69.3969C37.9341 69.3569 43.3532 67.2973 49.9322 64.8176C62.2303 60.2184 62.7902 59.9584 62.7902 58.9186C62.7902 58.5186 55.4113 45.4807 54.4515 44.2009C54.0515 43.6809 53.8316 43.561 53.1917 43.561C52.5918 43.561 52.3318 43.6809 52.0119 44.0809C51.252 45.0607 51.032 44.5808 55.5313 52.3396C57.331 55.4391 58.7908 58.0387 58.7308 58.0787C58.6908 58.1187 52.7717 60.3583 45.5929 63.0579C32.6749 67.8972 32.4949 67.9771 29.1154 69.9368C27.2357 71.0167 25.416 71.9765 25.0561 72.0365C24.1362 72.2365 22.9764 71.8565 22.2765 71.1167C21.9366 70.7567 20.9167 69.157 19.9969 67.5572C18.1772 64.3977 17.8772 63.3579 18.4571 62.238C18.917 61.3382 19.497 60.9183 22.4765 59.1785L25.256 57.5788L27.3757 61.2182C29.6754 65.1776 30.0353 65.5375 31.1751 65.1376C31.875 64.8976 32.195 64.4377 32.195 63.6578C32.195 63.3579 31.3151 61.6181 30.0953 59.5185C28.9355 57.5188 28.0156 55.819 28.0356 55.7391C28.0756 55.6591 30.9752 53.2395 34.4946 50.3199C38.0141 47.4204 42.4534 43.7809 44.3531 42.2012C47.6126 39.5216 48.1925 39.1017 48.1925 39.5416C48.1925 39.9815 49.5523 41.1613 50.0722 41.1613C50.7921 41.1613 51.5919 40.3415 51.5919 39.6216C51.5919 38.9817 49.9922 36.0421 49.3723 35.5022C48.8924 35.1023 48.2725 35.0623 47.6925 35.4022ZM17.4373 69.5169L18.1772 70.8767L17.3373 71.3166C16.1775 71.9165 15.3376 71.8965 14.8177 71.2366C14.0778 70.3168 14.3378 69.4769 15.5576 68.657C15.9575 68.3971 16.3974 68.1771 16.4974 68.1771C16.6174 68.1571 17.0373 68.777 17.4373 69.5169ZM36.3743 73.5563C38.314 76.9158 38.434 77.7556 37.0142 78.3555C35.9544 78.7955 35.4745 78.3555 33.6547 75.256C32.7549 73.7163 32.015 72.3565 32.015 72.2565C31.995 72.0365 34.1347 70.7767 34.5146 70.7567C34.6546 70.7567 35.4745 72.0165 36.3743 73.5563Z" fill="white"/>
<path d="M68.8892 44.0411C66.6896 44.501 64.7499 44.9609 64.5499 45.0409C64.11 45.2409 63.73 46.2407 63.89 46.7606C64.09 47.3805 64.7899 47.9604 65.3698 47.9604C65.6497 47.9604 67.7694 47.5805 70.089 47.1206C73.4885 46.4407 74.3684 46.2007 74.7283 45.8408C75.7082 44.8609 74.9483 43.1412 73.5485 43.1812C73.1886 43.2012 71.0889 43.5811 68.8892 44.0411Z" fill="white"/>
<path d="M5.29915 50.06L4.79923 50.54V67.6573V84.7546H2.89952C1.09981 84.7546 0.93983 84.7946 0.459905 85.2745C-0.0400165 85.7745 -0.0400165 85.7945 0.039971 88.614C0.0999616 91.2936 0.139955 91.5336 0.739862 92.7934C1.61972 94.6531 2.73955 95.8129 4.55926 96.7128L6.07903 97.4526H28.7955H51.5119L53.0317 96.7128C54.8514 95.8129 55.9712 94.6531 56.8511 92.7934C57.451 91.5336 57.491 91.2936 57.551 88.614C57.631 85.7945 57.631 85.7745 57.131 85.2745C56.6511 84.7946 56.4911 84.7546 54.6914 84.7546H52.7917V76.6759C52.7917 68.8171 52.7717 68.5971 52.3718 68.0772C51.7919 67.3373 50.5921 67.3373 50.0122 68.0772C49.6122 68.5971 49.5922 68.8171 49.5922 76.6759V84.7546H28.7955H7.99873V68.7571V52.7596H14.8777H21.7766L22.3165 52.2997C22.7164 51.9597 22.8564 51.6398 22.8564 51.1599C22.8564 50.6799 22.7164 50.36 22.3165 50.02L21.7766 49.5601H13.7778H5.77907L5.29915 50.06ZM54.3915 89.0739C54.3915 90.8137 54.0315 91.7335 52.8917 92.8534C51.6719 94.0932 50.872 94.3531 48.3124 94.3531H46.3927V93.2533C46.3927 91.9135 45.8128 91.1536 44.793 91.1536C43.7731 91.1536 43.1932 91.9135 43.1932 93.2533V94.3531H28.7955H14.3977V93.2533C14.3977 91.9135 13.8178 91.1536 12.798 91.1536C11.7781 91.1536 11.1982 91.9135 11.1982 93.2533V94.3531H9.27853C6.71893 94.3531 5.91905 94.0932 4.69924 92.8534C3.55942 91.7335 3.19948 90.8137 3.19948 89.0739V87.9541H28.7955H54.3915V89.0739Z" fill="white"/>
<path d="M70.389 51.4199C69.4092 51.7399 67.7294 53.4596 67.4295 54.4795C67.0895 55.6593 67.0895 75.4562 67.4295 76.636C67.7494 77.7358 69.4092 79.3956 70.509 79.7155C71.1089 79.8955 74.1284 79.9555 81.6272 79.9555C93.4254 79.9555 93.1854 79.9955 94.6452 78.3557C95.765 77.1159 95.985 76.316 95.985 73.5765C95.985 71.4768 95.965 71.3168 95.4851 70.8569C94.8452 70.197 93.9253 70.197 93.2854 70.8569C92.8055 71.3168 92.7855 71.4768 92.7855 73.5565C92.7855 75.6362 92.7655 75.7961 92.2856 76.2561L91.8056 76.756H81.5872H71.3688L70.8889 76.2561L70.389 75.7761V65.5577V55.3393L70.8889 54.8594L71.3688 54.3595H81.5872H91.8056L92.2856 54.8594L92.7855 55.3393V60.7585V66.1776L93.2854 66.6576C93.5854 66.9775 94.0053 67.1575 94.3852 67.1575C94.7652 67.1575 95.1851 66.9775 95.4851 66.6576L95.985 66.1776V60.7385C95.985 57.119 95.905 55.0394 95.745 54.5195C95.6251 54.0795 95.1251 53.2797 94.6452 52.7597C93.1854 51.12 93.4454 51.16 81.5073 51.18C74.5283 51.2 70.8489 51.28 70.389 51.4199Z" fill="white"/>
<path d="M80.0875 59.3386C78.2478 59.8185 76.628 61.1383 75.7882 62.858C75.0883 64.3178 75.0883 66.8374 75.7882 68.2572C76.4081 69.537 77.6079 70.7368 78.8877 71.3567C80.3075 72.0566 82.8271 72.0566 84.2868 71.3567C85.5666 70.7368 86.7664 69.537 87.3864 68.2572C88.0862 66.7974 88.0862 64.2778 87.3864 62.858C86.7465 61.5782 85.5466 60.3784 84.2868 59.7785C83.207 59.2786 81.1673 59.0586 80.0875 59.3386ZM82.8471 62.638C84.9067 63.4979 85.4067 66.1775 83.8069 67.7772C82.5071 69.077 80.6674 69.077 79.3676 67.7772C76.888 65.3176 79.6276 61.2782 82.8471 62.638Z" fill="white"/>
</svg>
