<svg width="97" height="89" viewBox="0 0 97 89" fill="none" xmlns="http://www.w3.org/2000/svg">
<path d="M15.5241 2.02572C11.941 5.7401 7.90771 10.0735 7.70136 10.4675C7.5888 10.7114 7.53252 11.1053 7.60756 11.3492C7.81392 12.1746 8.24539 12.381 9.83994 12.4372L11.3407 12.4935L11.4345 18.6466C11.5283 24.4809 11.5471 24.8185 11.8847 25.0812C12.4288 25.4751 13.3855 25.4188 13.7982 24.9498C14.1359 24.5746 14.1546 24.1807 14.1546 17.5586C14.1546 10.9177 14.1359 10.5425 13.7982 10.1673C13.5918 9.94223 13.1979 9.69836 12.8977 9.62332C12.3725 9.492 12.3912 9.47324 15.0363 6.64056L17.6814 3.77036L19.5011 5.70258C22.8966 9.32317 23.1217 9.5858 22.8215 9.5858C22.2775 9.5858 21.6022 9.99851 21.3958 10.4675C21.2457 10.7864 21.1894 16.0015 21.1894 28.4391C21.1894 38.2878 21.1144 45.9792 21.0206 45.9792C20.9268 45.9792 20.214 46.4107 19.4261 46.9172C17.8503 47.949 15.7117 49.975 14.8863 51.2319L14.3422 52.0573L14.2484 40.5953C14.1546 29.6585 14.1359 29.1144 13.7982 28.7393C13.3292 28.2327 12.1849 28.1952 11.7534 28.683C11.472 29.0019 11.4345 30.4651 11.397 44.9287L11.3407 60.8368L10.1213 61.2495C7.79516 62.0374 6.2006 63.0316 4.49348 64.7388C1.39816 67.8528 -0.00879981 71.4359 0.235074 75.6193C0.460188 79.1461 1.79211 82.1101 4.30589 84.6426C6.1068 86.4623 7.75764 87.5128 10.0275 88.3195L11.5283 88.8447L34.9214 88.901C58.202 88.9385 58.3333 88.9385 58.7085 88.5633C59.2713 88.0006 59.215 87.0063 58.5959 86.5186C58.0894 86.1246 58.0706 86.1246 35.4654 86.1246C15.8993 86.1246 12.6726 86.0871 11.7159 85.8432C7.55128 84.7927 4.13705 81.2846 3.27411 77.1951C1.97971 71.0795 5.84417 65.0389 11.941 63.6882C12.7101 63.5194 13.498 63.238 13.6856 63.0504C13.9295 62.8065 14.0608 62.2625 14.1546 61.1557C14.4173 58.2104 15.2802 55.6779 16.7622 53.4643C18.263 51.2132 20.8893 49.0183 23.3843 47.9302C26.1607 46.6921 30.1753 46.3732 33.1017 47.1236C36.3096 47.949 36.5535 47.8552 37.0412 45.6791C38.3732 39.6573 43.0068 34.611 48.8597 32.7913C53.3245 31.4031 57.8268 31.7408 61.9914 33.7856C66.0247 35.7553 69.045 39.0195 70.6958 43.1653C71.2586 44.6286 71.8401 47.0485 71.8401 48.024C71.8401 48.8119 72.2153 49.5436 72.6655 49.6374C72.8907 49.6749 74.1663 49.7499 75.4982 49.8062C80.6946 50.0125 84.8217 51.7947 88.2735 55.3778C91.35 58.5669 93.0759 62.4876 93.3573 66.9149C93.9013 75.8256 87.6732 83.9485 78.9125 85.7682C77.3929 86.0683 76.3237 86.1246 70.1143 86.1246H63.0419L62.5354 86.5561C61.8601 87.1376 61.8225 88.0944 62.4604 88.6009C62.8918 88.9573 63.2483 88.9573 70.7896 88.901C78.1058 88.826 78.7999 88.7885 80.0943 88.432C85.1594 87.0251 89.0801 84.4175 91.9691 80.5718C97.3906 73.3494 97.6345 63.8008 92.5694 56.1844C90.8623 53.6331 87.767 50.8004 85.3095 49.5248L84.5966 49.1684V46.7484C84.5966 44.591 84.5591 44.2909 84.2026 43.8407C83.7149 43.2216 82.7206 43.1653 82.1579 43.7281C81.8389 44.047 81.7827 44.3472 81.7827 45.9792C81.7827 47.011 81.7076 47.8552 81.6138 47.8552C81.5013 47.8552 80.7321 47.6864 79.8692 47.48C79.0063 47.2737 77.4867 47.0485 76.4925 46.9923L74.6541 46.8609V36.7871C74.6541 27.4073 74.6353 26.6757 74.3164 26.2818C74.1475 26.0566 73.7348 25.8128 73.3972 25.7565L72.8156 25.6252L75.517 22.8112L78.2184 19.9973L80.9197 22.8112L83.6211 25.6252L83.0208 25.7753C81.7639 26.0942 81.7827 25.9816 81.7827 33.204C81.7827 39.5072 81.8014 39.7323 82.1579 40.1263C82.7206 40.7266 83.6961 40.6891 84.2026 40.0512C84.5778 39.5635 84.5966 39.3384 84.5966 34.0482V28.5329H86.0974C87.3918 28.5329 87.6356 28.4766 87.9733 28.1202C88.6111 27.4261 88.4611 26.7883 87.373 25.5689C84.1464 21.9858 79.0063 16.6769 78.6498 16.5831C78.406 16.5268 78.0308 16.5268 77.8056 16.6019C77.4305 16.6769 73.0783 21.1792 69.2701 25.3813C67.9569 26.8258 67.7881 27.4261 68.5197 28.1202C68.8949 28.4766 69.1763 28.5329 70.3956 28.5329H71.8401V33.8043V39.0757L71.0522 37.9127C69.9642 36.2806 67.713 34.0482 65.8934 32.7726L64.3363 31.6845V23.1677V14.6509H65.762C67.3941 14.6509 67.7693 14.5008 68.0695 13.7317C68.2571 13.3002 68.2571 13.0938 68.0507 12.7186C67.8631 12.3622 61.6912 5.66506 59.1399 3.07625C58.5772 2.49471 57.5266 2.49471 56.9638 3.07625C54.4125 5.66506 48.2407 12.3622 48.0531 12.7186C47.8467 13.0938 47.8467 13.3002 48.0343 13.7317C48.3345 14.5008 48.7096 14.6509 50.3417 14.6509H51.7674V21.9483V29.2458L50.8858 29.3771C49.4225 29.6022 46.9463 30.3713 45.5768 31.0654L44.2636 31.7033V28.139V24.5934H45.7456C47.1339 24.5934 47.2652 24.5559 47.6216 24.1057C48.4283 23.0926 48.3532 22.9801 43.3257 17.6336C40.7556 14.876 38.467 12.5873 38.2606 12.531C38.0542 12.4748 37.7166 12.4748 37.5102 12.531C37.3039 12.5873 35.0152 14.876 32.4452 17.6149C28.3556 21.9483 27.7553 22.6612 27.7553 23.1864C27.7553 24.2182 28.3743 24.5934 30.0627 24.5934H31.5072V34.2546V43.9157H29.4061C27.5864 43.9157 25.6167 44.1783 24.3598 44.5723C24.0221 44.6848 24.0034 44.1971 24.0034 28.5517V12.3997H25.3916C26.1607 12.3997 26.9299 12.3434 27.0987 12.2872C27.5864 12.0996 27.9616 11.1804 27.774 10.6363C27.6615 10.3925 25.5041 7.97248 22.9716 5.28987C17.3813 -0.63813 17.8878 -0.413017 15.5241 2.02572ZM62.6667 10.9365C63.3233 11.7056 63.3796 11.8369 63.0607 11.8369C62.4229 11.8369 62.0852 12.0433 61.8038 12.6061C61.5599 13.0375 61.5224 14.5571 61.5224 21.7982C61.5224 29.9586 61.5036 30.4464 61.2035 30.3151C60.303 29.9586 57.3203 29.302 56.0446 29.1895L54.5814 29.0582V21.0854C54.5814 12.3622 54.5626 12.1559 53.4933 11.912C53.2119 11.8557 52.9118 11.7807 52.8367 11.7619C52.7429 11.7431 53.8873 10.4487 55.3693 8.87294L58.0519 6.00273L59.9654 8.02876C61.0346 9.13557 62.2353 10.4487 62.6667 10.9365ZM40.6431 18.8342C43.2882 21.6857 43.2882 21.6857 42.7441 21.7982C42.444 21.8733 42.0125 22.0796 41.8249 22.2485C41.4685 22.5674 41.4497 22.8675 41.4497 28.0264V33.4667L39.8552 35.0612C37.4915 37.4062 35.8969 39.9387 34.7901 43.1466L34.3399 44.3847V33.5792C34.3211 23.5054 34.3023 22.7362 33.9834 22.3423C33.8146 22.1171 33.3831 21.8733 33.0642 21.817L32.4827 21.6857L35.1278 18.8342C36.591 17.2772 37.8291 16.0015 37.8854 16.0015C37.9417 16.0015 39.1798 17.2772 40.6431 18.8342Z" fill="white"/>
<path d="M33.8146 58.1918C31.0007 59.2798 29.7625 62.544 31.207 65.0202C31.8636 66.127 32.3889 66.4647 35.3341 67.6466C38.5232 68.9222 38.8609 69.091 39.4612 69.8039C40.0615 70.5355 40.0803 71.2296 39.5175 72.055C38.9735 72.8992 38.1293 73.3494 36.9662 73.4995C35.6343 73.6496 33.6458 72.993 32.5765 72.0363C31.4134 71.0233 30.9069 70.9482 30.194 71.6423C29.8939 71.9612 29.6312 72.3927 29.6312 72.5991C29.6312 73.1994 30.9819 74.5501 32.2388 75.2066C35.5217 76.97 39.2736 76.5761 41.3559 74.2687C43.1756 72.2426 43.2319 69.8414 41.506 67.928C40.4367 66.7273 39.9677 66.4647 36.8536 65.2078C34.0585 64.101 33.3831 63.6133 33.3831 62.694C33.3831 62.0562 33.9647 61.2683 34.6963 60.8931C35.8406 60.2928 38.0918 60.6493 39.6113 61.6435C40.493 62.2251 41.2621 62.2438 41.7874 61.681C42.6128 60.7993 42.2189 59.8426 40.6431 58.9609C38.542 57.7603 35.7468 57.4414 33.8146 58.1918Z" fill="white"/>
<path d="M45.7832 58.1542C45.5768 58.3605 45.3517 58.8108 45.2954 59.1484C45.2392 59.4861 45.2016 63.2943 45.2392 67.5902L45.2954 75.4129L45.7269 75.8444C46.1396 76.2571 46.2522 76.2759 50.0041 76.2759H53.8685L54.3188 75.7506C54.8816 75.094 54.8816 74.6438 54.3188 73.9872L53.8685 73.462L51.0359 73.4057L48.2032 73.3306V70.9294V68.5282L50.8483 68.4532C53.362 68.3969 53.5121 68.3781 53.8498 67.9467C54.3375 67.3464 54.3 66.5772 53.7747 66.0895C53.362 65.7143 53.1557 65.6768 50.7732 65.6768H48.2032V63.1442V60.6117H50.9045C52.3865 60.6117 53.756 60.5554 53.9248 60.4991C54.375 60.3115 54.7878 59.3736 54.6564 58.8295C54.4126 57.8728 54.0749 57.7978 49.9478 57.7978C46.421 57.7978 46.1209 57.8165 45.7832 58.1542Z" fill="white"/>
<path d="M62.648 58.1543C58.5772 59.4487 55.8195 63.5007 56.1572 67.6466C56.8138 75.6944 66.3624 79.2399 72.0277 73.5183C74.8792 70.6481 75.4795 66.3522 73.5848 62.5815C72.5718 60.6118 70.0955 58.6608 67.8069 58.0605C66.4749 57.704 63.9049 57.7415 62.648 58.1543ZM68.182 61.1745C69.3827 61.7561 70.6958 63.0692 71.2774 64.2699C71.9339 65.6393 72.0277 67.8342 71.4462 69.3349C70.8647 70.8732 69.1575 72.5991 67.7131 73.1056C64.5239 74.1936 61.0722 72.843 59.6465 69.9352C58.3896 67.3652 58.7835 64.7201 60.7345 62.6753C62.2353 61.0807 63.4734 60.5742 65.6495 60.668C66.8689 60.7056 67.4692 60.8369 68.182 61.1745Z" fill="white"/>
</svg>
