<svg width="104" height="105" viewBox="0 0 104 105" fill="none" xmlns="http://www.w3.org/2000/svg">
<path d="M51.0874 0.350945C50.8964 0.477947 49.6866 2.67933 48.4343 5.26173L46.1421 9.96085L41.1543 10.6594C35.5723 11.4426 35.169 11.5907 35.0629 12.9243C34.9992 13.6863 35.0841 13.8133 38.7135 17.454L42.4278 21.1795L41.6 26.1961C41.1331 28.969 40.8147 31.4032 40.8996 31.5937C41.1543 32.2922 41.6637 32.7156 42.3004 32.7156C42.7037 32.7156 44.6564 31.8266 47.4792 30.366L52 28.0376L56.5421 30.366C59.3225 31.8054 61.3176 32.7156 61.6996 32.7156C62.3364 32.7156 62.8457 32.2922 63.1004 31.5937C63.1853 31.4032 62.867 28.969 62.4 26.1961L61.5723 21.1795L65.2866 17.454C68.9159 13.8133 69.0008 13.6863 68.9372 12.9243C68.831 11.5907 68.4278 11.4426 62.8457 10.6594L57.858 9.96085L55.5657 5.26173C54.2286 2.53116 53.1037 0.456779 52.8702 0.329777C52.3396 0.0546036 51.5755 0.0757713 51.0874 0.350945ZM53.7617 8.96599C54.6531 10.8287 55.5657 12.4797 55.7568 12.6491C56.0115 12.8608 57.2849 13.1571 59.3225 13.4323C61.0841 13.6863 62.8245 13.9403 63.2066 14.0249L63.9282 14.152L61.0417 17.0519C59.4498 18.6394 58.1551 20.0788 58.1551 20.2481C58.1551 20.4174 58.431 22.2167 58.7706 24.2487C59.1102 26.2808 59.3649 27.9953 59.3225 28.0165C59.28 28.0588 57.6245 27.2544 55.6294 26.2384L52 24.3757L48.3706 26.2384C46.3755 27.2544 44.72 28.0588 44.6776 28.0165C44.6351 27.9953 44.8898 26.2808 45.2294 24.2487C45.569 22.2167 45.8449 20.4174 45.8449 20.2481C45.8449 20.0788 44.529 18.6182 42.9372 17.0095C41.3453 15.4008 40.0931 14.0884 40.1568 14.0884C40.2204 14.0884 41.9821 13.8344 44.0621 13.5381C46.5878 13.1783 47.9886 12.8819 48.2433 12.6702C48.4343 12.4797 49.347 10.8287 50.2384 8.96599C51.1298 7.12444 51.9151 5.62157 52 5.62157C52.0849 5.62157 52.8702 7.12444 53.7617 8.96599Z" fill="white"/>
<path d="M22.4343 11.358C22.2221 11.485 21.3306 13.0302 20.4604 14.7871C19.569 16.5651 18.8049 18.0468 18.7625 18.0892C18.72 18.1527 17.1282 18.4067 15.218 18.6819C13.329 18.9359 11.5674 19.2534 11.2914 19.3804C10.6972 19.6344 10.3151 20.4599 10.4849 21.1372C10.5486 21.4124 11.8008 22.8095 13.2441 24.2065L15.8972 26.7466L15.3029 30.3238C14.6874 33.9222 14.6874 34.4726 15.3665 35.0441C16.0457 35.5733 16.8947 35.3193 20.0996 33.6259L23.3045 31.9325L26.5731 33.7106C30.0327 35.5944 30.4996 35.7003 31.2637 34.7901C31.7306 34.2186 31.7306 33.8587 31.0514 29.9851L30.4996 26.7254L33.1739 24.1642C34.6384 22.746 35.8906 21.3913 35.9755 21.1584C36.1241 20.5657 35.7845 19.6767 35.2751 19.4015C35.0416 19.2745 33.2588 18.957 31.2849 18.703L27.7192 18.2162L26.1486 14.9564C25.2996 13.1572 24.4294 11.5485 24.2384 11.4003C23.8139 11.0828 22.9649 11.0617 22.4343 11.358ZM24.3021 18.6607C24.8327 19.7825 25.427 20.8197 25.618 20.9679C25.809 21.1161 26.849 21.3489 27.9102 21.4971C31.1788 21.9204 31.0727 21.7299 28.9927 23.6985C26.9127 25.6459 26.9551 25.4977 27.507 28.5669C27.6768 29.583 27.7829 30.472 27.7404 30.5143C27.698 30.5566 26.7853 30.1333 25.7241 29.5406C24.6629 28.9691 23.5804 28.4823 23.3257 28.4823C23.071 28.4823 21.9461 28.9691 20.8637 29.5618C19.76 30.1545 18.8049 30.5778 18.7412 30.5143C18.6563 30.4508 18.7625 29.4348 18.9535 28.2918C19.1657 27.1276 19.3143 26.0692 19.3143 25.921C19.3143 25.794 18.4865 24.8415 17.489 23.8255C15.409 21.6876 15.2816 21.9628 18.5714 21.4759C19.5053 21.3489 20.4392 21.1584 20.6514 21.0526C20.8425 20.9256 21.5004 19.8884 22.0735 18.7454C22.6678 17.5812 23.1772 16.6286 23.2408 16.6286C23.3045 16.6286 23.7714 17.5388 24.3021 18.6607Z" fill="white"/>
<path d="M79.7616 11.4003C79.5706 11.5485 78.7004 13.1572 77.8514 14.9564L76.2808 18.2161L72.7151 18.703C70.7624 18.957 68.9584 19.2745 68.7461 19.4015C68.2155 19.6767 67.8759 20.5657 68.0245 21.1584C68.1094 21.3912 69.3616 22.7459 70.8261 24.1429L73.5004 26.7042L72.8849 30.3449C72.3331 33.6682 72.3118 34.0492 72.5877 34.5572C72.7575 34.8747 73.182 35.2134 73.5004 35.3192C74.0098 35.4886 74.498 35.2981 77.4057 33.7317L80.7167 31.9325L82.6482 32.9697C83.7094 33.5412 85.2588 34.3455 86.1077 34.7477C87.5086 35.4462 87.6784 35.4886 88.2302 35.2134C89.3339 34.6842 89.3763 34.2609 88.7184 30.3238L88.1028 26.7677L90.7559 24.2064C92.1992 22.7882 93.4514 21.4124 93.5151 21.1372C93.6849 20.4599 93.3028 19.6343 92.7086 19.3803C92.4326 19.2533 90.671 18.9358 88.782 18.6818C86.8718 18.4066 85.28 18.1526 85.2375 18.0891C85.1951 18.0468 84.431 16.5651 83.5396 14.787C82.6482 13.009 81.7567 11.4638 81.5233 11.3368C80.9714 11.0405 80.2073 11.0828 79.7616 11.4003ZM81.9265 18.7453C82.4996 19.8883 83.1575 20.9255 83.3486 21.0525C83.5608 21.1584 84.4947 21.3489 85.4286 21.4759C88.7184 21.9627 88.591 21.6876 86.511 23.8254C85.5135 24.8415 84.6857 25.794 84.6857 25.921C84.6857 26.0692 84.8343 27.1275 85.0465 28.2917C85.2375 29.4347 85.3437 30.4508 85.28 30.5143C85.2163 30.5778 84.2612 30.1333 83.1575 29.5406C82.0539 28.9691 80.929 28.4822 80.6743 28.4822C80.3984 28.4822 79.3159 28.9691 78.2759 29.5617C77.2147 30.1544 76.3233 30.5778 76.2596 30.5354C76.2171 30.4719 76.3233 29.5829 76.4931 28.5669C77.0449 25.4976 77.0873 25.6458 75.0073 23.6984C72.9273 21.7087 72.8 21.9204 76.1747 21.497C77.151 21.37 78.1273 21.1584 78.3396 21.0102C78.5518 20.8832 79.1673 19.846 79.698 18.703C80.2286 17.5599 80.6955 16.6286 80.7592 16.6286C80.8228 16.6286 81.3322 17.5811 81.9265 18.7453Z" fill="white"/>
<path d="M8.95673 34.3455C8.80816 34.409 8.12898 35.5732 7.42857 36.949L6.17633 39.4468L3.56571 39.8278C0.61551 40.2723 0 40.611 0 41.8387C0 42.4313 0.275918 42.7912 1.95265 44.3787L3.92653 46.2203L3.52326 48.4005C3.33224 49.607 3.09878 50.8982 3.0351 51.2581C2.88653 52.1259 3.71429 53.0996 4.58449 53.0996C4.92408 53.0996 6.17633 52.5704 7.38612 51.8931C8.57469 51.2369 9.69959 50.7077 9.84816 50.7077C9.99673 50.7077 11.1216 51.2369 12.3102 51.9142C14.56 53.1208 15.409 53.3324 16.0457 52.8244C16.7037 52.2529 16.7461 51.6814 16.2367 48.9932L15.7486 46.3684L17.8498 44.3576C20.0784 42.2408 20.3118 41.7752 19.6327 40.8226C19.2931 40.3358 18.4865 40.1241 15.3241 39.6796L13.5624 39.4468L12.48 37.2877C11.9069 36.1235 11.2278 34.9382 10.9731 34.663C10.5486 34.2185 9.63592 34.0703 8.95673 34.3455ZM11.2914 41.9657C11.5886 42.2832 12.1616 42.4948 13.138 42.6642L14.56 42.897L13.4139 44.0401C12.3102 45.1407 12.2678 45.2466 12.3951 45.9874C12.4588 46.4319 12.5861 47.1516 12.6498 47.5961L12.7984 48.4217L11.5037 47.7655C10.782 47.4056 10.0604 47.1093 9.86939 47.1093C9.67837 47.1093 8.97796 47.3845 8.27755 47.7443C7.57714 48.083 6.98286 48.3793 6.94041 48.3793C6.89796 48.3793 6.98286 47.7443 7.13143 46.9611C7.28 46.1991 7.34367 45.4159 7.28 45.2254C7.21633 45.0349 6.72816 44.4422 6.17633 43.8707C5.64571 43.3204 5.26367 42.8759 5.32735 42.8759C5.87918 42.8759 8.02286 42.3678 8.2351 42.1773C8.4049 42.0503 8.80816 41.373 9.16898 40.6745L9.80571 39.4044L10.3363 40.4416C10.6335 41.0343 11.058 41.7117 11.2914 41.9657Z" fill="white"/>
<path d="M93.0269 34.6632C92.7722 34.9383 92.093 36.1025 91.52 37.2879L90.4375 39.4258L87.6147 39.8703C85.3012 40.2301 84.7281 40.3995 84.431 40.7805C83.6669 41.7118 83.9004 42.1987 86.1502 44.3577L88.2514 46.3686L87.7632 49.0145C87.2114 51.9779 87.2751 52.4859 88.3787 53.0151C88.9518 53.2903 89.1216 53.2268 91.6049 51.9568L94.2367 50.6021L94.9159 50.9831C95.2979 51.2159 96.4228 51.8086 97.4416 52.3166C99.4579 53.375 100.031 53.375 100.731 52.2954C101.05 51.8086 101.05 51.6181 100.625 49.3744C100.392 48.0408 100.18 46.792 100.18 46.5591C100.18 46.3263 100.965 45.4161 102.09 44.3577C103.724 42.7914 104 42.4527 104 41.86C104 40.6111 103.384 40.2513 100.434 39.828L97.8236 39.4258L96.5714 36.9492C95.8922 35.5734 95.1706 34.4092 94.9796 34.3245C94.2792 34.0705 93.4514 34.1975 93.0269 34.6632ZM94.8522 40.717C95.1918 41.3943 95.5951 42.0505 95.7649 42.1775C95.9771 42.368 98.1208 42.876 98.6726 42.876C98.7363 42.876 98.3543 43.3205 97.8236 43.8709C97.2718 44.4424 96.7836 45.0351 96.72 45.2256C96.6563 45.4161 96.72 46.1993 96.8685 46.9613C97.0171 47.7445 97.0808 48.3795 97.0171 48.3795C96.9534 48.3583 96.3592 48.0832 95.7224 47.7445C95.0857 47.3846 94.3853 47.1095 94.173 47.1095C93.9608 47.1095 93.2179 47.4058 92.4963 47.7657L91.2016 48.4218L91.3502 47.5963C91.4138 47.1518 91.5412 46.4321 91.6049 45.9876C91.7322 45.2468 91.6898 45.1409 90.5861 44.0402L89.44 42.8972L90.8832 42.6644C92.4751 42.3892 92.9632 42.0082 93.6849 40.3783C93.8971 39.8915 94.1306 39.4893 94.1518 39.4893C94.1943 39.4893 94.5126 40.0396 94.8522 40.717Z" fill="white"/>
<path d="M48.6041 37.7323C45.0171 38.2827 43.68 38.579 41.5787 39.2775C30.0963 43.0876 21.8824 52.3377 19.2718 64.3395C18.8898 66.1387 18.8049 67.1547 18.8049 70.8166C18.8049 74.5209 18.8685 75.4734 19.2718 77.315C20.609 83.4111 22.9649 88.0891 27.2734 93.2115C29.3322 95.6457 30.8392 96.9793 33.6408 98.8208C37.1216 101.086 40.9845 102.694 45.3567 103.668C47.1396 104.07 48.0734 104.134 52 104.134C57.0089 104.134 58.7069 103.88 62.6547 102.567C64.5649 101.932 67.9608 100.324 69.68 99.2653C72.4179 97.5508 75.6653 94.5451 78.1485 91.4546C81.3322 87.454 83.5608 82.6914 84.7281 77.315C85.1314 75.4734 85.1951 74.4997 85.1951 70.8166C85.1951 65.9058 84.8979 63.9796 83.4971 60.0002C78.764 46.4109 66.0506 37.4571 51.7241 37.6053C50.302 37.6265 48.9012 37.6688 48.6041 37.7323ZM57.3485 41.3096C63.4612 42.4314 68.831 45.2467 73.2245 49.6494C79.04 55.4281 82.0114 62.6038 82.0114 70.8166C81.9902 77.2303 80.4408 82.3528 76.8326 87.7292C76.111 88.8087 75.4743 89.6343 75.4106 89.5919C75.3681 89.5284 75.1771 88.9357 75.0073 88.2372C74.0098 84.4271 71.5053 81.3791 67.9183 79.6434C65.6261 78.5215 63.5036 77.9288 60.2138 77.5266C58.9616 77.3573 57.9004 77.188 57.8579 77.1456C57.8155 77.1033 57.7306 76.7646 57.6881 76.4048C57.6245 75.8544 57.773 75.6428 58.7918 74.8172C61.7632 72.383 63.9918 68.3824 64.7347 64.0431C64.8832 63.2811 65.2228 61.9899 65.4987 61.1432C66.093 59.3864 66.1355 58.3068 65.6898 56.1901C65.2228 53.9887 64.2465 52.1472 62.8881 50.9195C61.8481 49.967 59.9379 49.0144 59.0889 49.0144C58.9192 49.0144 58.4098 48.7181 57.9641 48.3794C56.4359 47.1517 53.613 46.4955 49.8351 46.4744C44.8261 46.4744 40.6661 48.2736 38.7559 51.3217C38.0767 52.3588 37.5673 54.1369 37.5673 55.3434C37.5673 56.3806 38.7983 63.3023 39.4987 66.0117C40.3689 69.5254 42.7461 73.2085 45.4204 75.1559C46.2906 75.7909 46.3967 75.9603 46.3118 76.5318C46.2269 77.1033 46.142 77.1668 45.4841 77.1668C43.9347 77.1668 40.1567 77.8441 38.3102 78.458C35.8694 79.2835 34.4473 80.0879 32.7494 81.6754C31.1151 83.1994 29.9477 85.0833 29.1412 87.5387C28.4196 89.7401 28.5045 89.6131 28.1224 89.1051C25.3632 85.5702 23.1771 80.617 22.3706 76.1084C21.8612 73.399 21.8612 68.2342 22.3706 65.5672C23.4955 59.4499 26.3608 54.0311 30.7755 49.6283C35.8694 44.5693 42.1943 41.6271 49.5592 40.8862C51.0873 40.7381 55.5657 40.9709 57.3485 41.3096ZM52.4032 49.8823C54.5045 50.1363 55.4808 50.4961 56.3722 51.364C56.8392 51.8085 57.3273 52.0413 57.9641 52.126C60.511 52.4647 62.0179 54.2004 62.6334 57.5448C63.0155 59.5557 62.7396 59.7462 61.2963 58.4338C59.1951 56.5288 58.4098 56.4653 54.9714 57.82C53.6343 58.3492 52.2759 58.7937 51.9787 58.7937C51.6816 58.8148 50.4294 58.4338 49.1983 57.947C47.9673 57.4813 46.6302 57.0156 46.2269 56.9521C45.102 56.7405 43.9347 57.1638 42.7036 58.2433C42.0881 58.7725 41.5363 59.1747 41.4726 59.1323C41.2392 58.8783 40.751 55.3858 40.8783 54.6872C41.0481 53.5442 42.1094 52.0625 43.213 51.3428C45.5477 49.8823 48.5616 49.3954 52.4032 49.8823ZM48.2645 61.1856C51.5543 62.4556 52.2122 62.4556 55.5869 61.1644L58.1551 60.1695L59.7681 61.6089C60.6596 62.4133 61.4236 63.1753 61.4873 63.3234C61.6571 63.7891 60.702 66.8372 59.8955 68.3612C59.0465 69.9699 56.8604 72.4465 55.8841 72.9122C55.5657 73.0815 54.9077 73.399 54.4408 73.653C53.7616 74.0129 53.2098 74.0975 51.7453 74.0975C50.1322 74.0975 49.8563 74.034 49.4106 73.6107C49.1134 73.3567 48.6677 73.145 48.413 73.145C48.0734 73.145 47.373 72.5947 46.2694 71.494C44.4228 69.6524 43.1281 67.3664 42.5126 64.8052L42.1518 63.3234L43.8498 61.7782C44.7624 60.9316 45.5902 60.233 45.6751 60.233C45.7387 60.233 46.9061 60.6564 48.2645 61.1856ZM54.4196 78.7332C54.3347 80.236 53.8465 82.4374 53.4432 83.2418C53.1036 83.9403 52.191 84.2366 51.2783 83.9403C50.3445 83.6439 50.0473 83.1571 49.5167 81.0404C49.1771 79.6645 49.1347 79.1142 49.2832 78.2887L49.4955 77.2726H52H54.5257L54.4196 78.7332ZM45.8449 81.7601C46.3543 84.0673 46.8636 85.1468 47.9673 86.1205C50.1747 88.1102 53.2522 88.0256 55.5869 85.93C56.6906 84.9563 57.1787 83.9403 57.7306 81.6542C58.0277 80.3842 57.8579 80.4265 60.702 80.871C66.0294 81.6754 69.4253 83.6228 70.9534 86.7555C71.6751 88.2372 72.3755 90.8831 72.3755 92.1108C72.3755 92.9998 72.333 93.0422 70.6351 94.3545C68.4277 96.0479 67.5575 96.5983 65.4563 97.6566C63.2277 98.7785 60.511 99.7098 57.8792 100.281C54.7592 100.938 49.4106 100.938 46.2269 100.281C41.1543 99.223 36.782 97.1698 32.8555 93.9524C31.2 92.5977 31.2 92.5977 31.8367 89.8883C33.1314 84.4906 35.9543 82.1199 42.7673 80.7017C43.0008 80.6382 43.7224 80.5959 44.3804 80.5747L45.5689 80.5535L45.8449 81.7601Z" fill="white"/>
</svg>
