<svg xmlns="http://www.w3.org/2000/svg" width="240" height="242" viewBox="0 0 240 242" fill="none">
  <ellipse cx="5.86386" cy="131.873" rx="5.20281" ry="5.24414" fill="#41EAD4"/>
  <ellipse cx="26.6751" cy="131.873" rx="5.20281" ry="5.24414" fill="#41EAD4"/>
  <ellipse cx="47.4863" cy="131.873" rx="5.20281" ry="5.24414" fill="#41EAD4"/>
  <ellipse cx="68.2976" cy="131.873" rx="5.20281" ry="5.24414" fill="#41EAD4"/>
  <ellipse cx="89.1088" cy="131.873" rx="5.20281" ry="5.24414" fill="#41EAD4"/>
  <ellipse cx="109.92" cy="131.873" rx="5.20281" ry="5.24414" fill="#41EAD4"/>
  <ellipse cx="5.86386" cy="152.85" rx="5.20281" ry="5.24414" fill="#41EAD4"/>
  <ellipse cx="26.6751" cy="152.85" rx="5.20281" ry="5.24414" fill="#41EAD4"/>
  <ellipse cx="47.4863" cy="152.85" rx="5.20281" ry="5.24414" fill="#41EAD4"/>
  <ellipse cx="68.2976" cy="152.85" rx="5.20281" ry="5.24414" fill="#41EAD4"/>
  <ellipse cx="89.1088" cy="152.85" rx="5.20281" ry="5.24414" fill="#41EAD4"/>
  <ellipse cx="109.92" cy="152.85" rx="5.20281" ry="5.24414" fill="#41EAD4"/>
  <ellipse cx="5.86386" cy="173.826" rx="5.20281" ry="5.24414" fill="#41EAD4"/>
  <ellipse cx="26.6751" cy="173.826" rx="5.20281" ry="5.24414" fill="#41EAD4"/>
  <ellipse cx="47.4863" cy="173.826" rx="5.20281" ry="5.24414" fill="#41EAD4"/>
  <ellipse cx="68.2976" cy="173.826" rx="5.20281" ry="5.24414" fill="#41EAD4"/>
  <ellipse cx="89.1088" cy="173.826" rx="5.20281" ry="5.24414" fill="#41EAD4"/>
  <ellipse cx="109.92" cy="173.826" rx="5.20281" ry="5.24414" fill="#41EAD4"/>
  <ellipse cx="5.86386" cy="194.803" rx="5.20281" ry="5.24414" fill="#41EAD4"/>
  <ellipse cx="26.6751" cy="194.803" rx="5.20281" ry="5.24414" fill="#41EAD4"/>
  <ellipse cx="47.4863" cy="194.803" rx="5.20281" ry="5.24414" fill="#41EAD4"/>
  <ellipse cx="68.2976" cy="194.803" rx="5.20281" ry="5.24414" fill="#41EAD4"/>
  <ellipse cx="89.1088" cy="194.803" rx="5.20281" ry="5.24414" fill="#41EAD4"/>
  <ellipse cx="109.92" cy="194.803" rx="5.20281" ry="5.24414" fill="#41EAD4"/>
  <ellipse cx="5.86386" cy="215.779" rx="5.20281" ry="5.24414" fill="#41EAD4"/>
  <ellipse cx="26.6751" cy="215.779" rx="5.20281" ry="5.24414" fill="#41EAD4"/>
  <ellipse cx="47.4863" cy="215.779" rx="5.20281" ry="5.24414" fill="#41EAD4"/>
  <ellipse cx="68.2976" cy="215.779" rx="5.20281" ry="5.24414" fill="#41EAD4"/>
  <ellipse cx="89.1088" cy="215.779" rx="5.20281" ry="5.24414" fill="#41EAD4"/>
  <ellipse cx="109.92" cy="215.779" rx="5.20281" ry="5.24414" fill="#41EAD4"/>
  <ellipse cx="5.86386" cy="236.756" rx="5.20281" ry="5.24414" fill="#41EAD4"/>
  <ellipse cx="26.6751" cy="236.756" rx="5.20281" ry="5.24414" fill="#41EAD4"/>
  <ellipse cx="47.4863" cy="236.756" rx="5.20281" ry="5.24414" fill="#41EAD4"/>
  <ellipse cx="68.2976" cy="236.756" rx="5.20281" ry="5.24414" fill="#41EAD4"/>
  <ellipse cx="89.1088" cy="236.756" rx="5.20281" ry="5.24414" fill="#41EAD4"/>
  <ellipse cx="109.92" cy="236.756" rx="5.20281" ry="5.24414" fill="#41EAD4"/>
  <ellipse cx="5.86386" cy="6.01367" rx="5.20281" ry="5.24414" fill="#41EAD4"/>
  <ellipse cx="26.6751" cy="6.01367" rx="5.20281" ry="5.24414" fill="#41EAD4"/>
  <ellipse cx="47.4863" cy="6.01367" rx="5.20281" ry="5.24414" fill="#41EAD4"/>
  <ellipse cx="68.2976" cy="6.01367" rx="5.20281" ry="5.24414" fill="#41EAD4"/>
  <ellipse cx="89.1088" cy="6.01367" rx="5.20281" ry="5.24414" fill="#41EAD4"/>
  <ellipse cx="109.92" cy="6.01367" rx="5.20281" ry="5.24414" fill="#41EAD4"/>
  <ellipse cx="5.86386" cy="26.9902" rx="5.20281" ry="5.24414" fill="#41EAD4"/>
  <ellipse cx="26.6751" cy="26.9902" rx="5.20281" ry="5.24414" fill="#41EAD4"/>
  <ellipse cx="47.4863" cy="26.9902" rx="5.20281" ry="5.24414" fill="#41EAD4"/>
  <ellipse cx="68.2976" cy="26.9902" rx="5.20281" ry="5.24414" fill="#41EAD4"/>
  <ellipse cx="89.1088" cy="26.9902" rx="5.20281" ry="5.24414" fill="#41EAD4"/>
  <ellipse cx="109.92" cy="26.9902" rx="5.20281" ry="5.24414" fill="#41EAD4"/>
  <ellipse cx="5.86386" cy="47.9668" rx="5.20281" ry="5.24414" fill="#41EAD4"/>
  <ellipse cx="26.6751" cy="47.9668" rx="5.20281" ry="5.24414" fill="#41EAD4"/>
  <ellipse cx="47.4863" cy="47.9668" rx="5.20281" ry="5.24414" fill="#41EAD4"/>
  <ellipse cx="68.2976" cy="47.9668" rx="5.20281" ry="5.24414" fill="#41EAD4"/>
  <ellipse cx="89.1088" cy="47.9668" rx="5.20281" ry="5.24414" fill="#41EAD4"/>
  <ellipse cx="109.92" cy="47.9668" rx="5.20281" ry="5.24414" fill="#41EAD4"/>
  <ellipse cx="5.86386" cy="68.9434" rx="5.20281" ry="5.24414" fill="#41EAD4"/>
  <ellipse cx="26.6751" cy="68.9434" rx="5.20281" ry="5.24414" fill="#41EAD4"/>
  <ellipse cx="47.4863" cy="68.9434" rx="5.20281" ry="5.24414" fill="#41EAD4"/>
  <ellipse cx="68.2976" cy="68.9434" rx="5.20281" ry="5.24414" fill="#41EAD4"/>
  <ellipse cx="89.1088" cy="68.9434" rx="5.20281" ry="5.24414" fill="#41EAD4"/>
  <ellipse cx="109.92" cy="68.9434" rx="5.20281" ry="5.24414" fill="#41EAD4"/>
  <ellipse cx="5.86386" cy="89.9199" rx="5.20281" ry="5.24414" fill="#41EAD4"/>
  <ellipse cx="26.6751" cy="89.9199" rx="5.20281" ry="5.24414" fill="#41EAD4"/>
  <ellipse cx="47.4863" cy="89.9199" rx="5.20281" ry="5.24414" fill="#41EAD4"/>
  <ellipse cx="68.2976" cy="89.9199" rx="5.20281" ry="5.24414" fill="#41EAD4"/>
  <ellipse cx="89.1088" cy="89.9199" rx="5.20281" ry="5.24414" fill="#41EAD4"/>
  <ellipse cx="109.92" cy="89.9199" rx="5.20281" ry="5.24414" fill="#41EAD4"/>
  <ellipse cx="5.86386" cy="110.896" rx="5.20281" ry="5.24414" fill="#41EAD4"/>
  <ellipse cx="26.6751" cy="110.896" rx="5.20281" ry="5.24414" fill="#41EAD4"/>
  <ellipse cx="47.4863" cy="110.896" rx="5.20281" ry="5.24414" fill="#41EAD4"/>
  <ellipse cx="68.2976" cy="110.896" rx="5.20281" ry="5.24414" fill="#41EAD4"/>
  <ellipse cx="89.1088" cy="110.896" rx="5.20281" ry="5.24414" fill="#41EAD4"/>
  <ellipse cx="109.92" cy="110.896" rx="5.20281" ry="5.24414" fill="#41EAD4"/>
  <ellipse cx="130.731" cy="131.873" rx="5.20281" ry="5.24414" fill="#41EAD4"/>
  <ellipse cx="151.543" cy="131.873" rx="5.20281" ry="5.24414" fill="#41EAD4"/>
  <ellipse cx="172.354" cy="131.873" rx="5.20281" ry="5.24414" fill="#41EAD4"/>
  <ellipse cx="193.165" cy="131.873" rx="5.20281" ry="5.24414" fill="#41EAD4"/>
  <ellipse cx="213.976" cy="131.873" rx="5.20281" ry="5.24414" fill="#41EAD4"/>
  <ellipse cx="234.787" cy="131.873" rx="5.20281" ry="5.24414" fill="#41EAD4"/>
  <ellipse cx="130.731" cy="152.85" rx="5.20281" ry="5.24414" fill="#41EAD4"/>
  <ellipse cx="151.543" cy="152.85" rx="5.20281" ry="5.24414" fill="#41EAD4"/>
  <ellipse cx="172.354" cy="152.85" rx="5.20281" ry="5.24414" fill="#41EAD4"/>
  <ellipse cx="193.165" cy="152.85" rx="5.20281" ry="5.24414" fill="#41EAD4"/>
  <ellipse cx="213.976" cy="152.85" rx="5.20281" ry="5.24414" fill="#41EAD4"/>
  <ellipse cx="234.787" cy="152.85" rx="5.20281" ry="5.24414" fill="#41EAD4"/>
  <ellipse cx="130.731" cy="173.826" rx="5.20281" ry="5.24414" fill="#41EAD4"/>
  <ellipse cx="151.543" cy="173.826" rx="5.20281" ry="5.24414" fill="#41EAD4"/>
  <ellipse cx="172.354" cy="173.826" rx="5.20281" ry="5.24414" fill="#41EAD4"/>
  <ellipse cx="193.165" cy="173.826" rx="5.20281" ry="5.24414" fill="#41EAD4"/>
  <ellipse cx="213.976" cy="173.826" rx="5.20281" ry="5.24414" fill="#41EAD4"/>
  <ellipse cx="234.787" cy="173.826" rx="5.20281" ry="5.24414" fill="#41EAD4"/>
  <ellipse cx="130.731" cy="194.803" rx="5.20281" ry="5.24414" fill="#41EAD4"/>
  <ellipse cx="151.543" cy="194.803" rx="5.20281" ry="5.24414" fill="#41EAD4"/>
  <ellipse cx="172.354" cy="194.803" rx="5.20281" ry="5.24414" fill="#41EAD4"/>
  <ellipse cx="193.165" cy="194.803" rx="5.20281" ry="5.24414" fill="#41EAD4"/>
  <ellipse cx="213.976" cy="194.803" rx="5.20281" ry="5.24414" fill="#41EAD4"/>
  <ellipse cx="234.787" cy="194.803" rx="5.20281" ry="5.24414" fill="#41EAD4"/>
  <ellipse cx="130.731" cy="215.779" rx="5.20281" ry="5.24414" fill="#41EAD4"/>
  <ellipse cx="151.543" cy="215.779" rx="5.20281" ry="5.24414" fill="#41EAD4"/>
  <ellipse cx="172.354" cy="215.779" rx="5.20281" ry="5.24414" fill="#41EAD4"/>
  <ellipse cx="193.165" cy="215.779" rx="5.20281" ry="5.24414" fill="#41EAD4"/>
  <ellipse cx="213.976" cy="215.779" rx="5.20281" ry="5.24414" fill="#41EAD4"/>
  <ellipse cx="234.787" cy="215.779" rx="5.20281" ry="5.24414" fill="#41EAD4"/>
  <ellipse cx="130.731" cy="236.756" rx="5.20281" ry="5.24414" fill="#41EAD4"/>
  <ellipse cx="151.543" cy="236.756" rx="5.20281" ry="5.24414" fill="#41EAD4"/>
  <ellipse cx="172.354" cy="236.756" rx="5.20281" ry="5.24414" fill="#41EAD4"/>
  <ellipse cx="193.165" cy="236.756" rx="5.20281" ry="5.24414" fill="#41EAD4"/>
  <ellipse cx="213.976" cy="236.756" rx="5.20281" ry="5.24414" fill="#41EAD4"/>
  <ellipse cx="234.787" cy="236.756" rx="5.20281" ry="5.24414" fill="#41EAD4"/>
</svg>