<svg width="890" height="317" viewBox="0 0 890 317" fill="none" xmlns="http://www.w3.org/2000/svg">
<path d="M0.722656 25.5625V12.9062H190.566V25.5625H0.722656ZM0.722656 50.875V38.2188H190.566V50.875H0.722656ZM0.722656 76.1875V63.5312H190.566V76.1875H139.941V304H127.285V76.1875H114.629V304H101.973V76.1875H89.3164V304H76.6602V76.1875H64.0039V304H51.3477V76.1875H0.722656ZM462.113 163.902L449.457 142.984V12.9062H462.113V163.902ZM487.426 205.387L474.77 184.117V12.9062H487.426V205.387ZM512.738 247.398L500.082 225.953V12.9062H512.738V247.398ZM331.332 153.004L343.988 173.922V304H331.332V153.004ZM306.02 111.52L318.676 132.789V304H306.02V111.52ZM280.707 69.5078L293.363 90.9531V304H280.707V69.5078ZM285.102 12.9062H299.867L478.812 304H464.047L285.102 12.9062ZM314.984 12.9062H329.926L508.695 304H493.578L314.984 12.9062ZM344.691 12.9062H359.457L525.395 283.434V12.9062H538.051V304C538.051 304 533.07 304 523.109 304L344.691 12.9062ZM268.051 33.4727V304H255.395V12.9062C255.395 12.9062 260.434 12.9062 270.512 12.9062L448.93 304H434.34L268.051 33.4727ZM827.176 112.398L816.805 119.254C810.477 109.879 802.215 102.496 792.02 97.1055C781.941 91.5977 770.984 88.8438 759.148 88.8438C739.93 88.8438 723.523 95.6406 709.93 109.234C696.336 122.828 689.539 139.234 689.539 158.453C689.539 177.672 696.336 194.078 709.93 207.672C723.523 221.266 739.93 228.062 759.148 228.062C770.984 228.062 781.941 225.309 792.02 219.801C802.215 214.293 810.477 206.852 816.805 197.477L827 204.859C819.5 215.875 809.773 224.605 797.82 231.051C785.867 237.496 772.977 240.719 759.148 240.719C748.016 240.719 737.352 238.551 727.156 234.215C717.078 229.879 708.348 224.02 700.965 216.637C693.582 209.254 687.723 200.523 683.387 190.445C679.051 180.25 676.883 169.586 676.883 158.453C676.883 147.32 679.051 136.715 683.387 126.637C687.723 116.441 693.582 107.652 700.965 100.27C708.348 92.8867 717.078 87.0273 727.156 82.6914C737.352 78.3555 748.016 76.1875 759.148 76.1875C773.094 76.1875 786.043 79.4688 797.996 86.0312C809.949 92.4766 819.676 101.266 827.176 112.398ZM848.094 97.9844L837.547 104.84C828.875 92.1836 817.625 82.1641 803.797 74.7812C790.086 67.2812 775.203 63.5312 759.148 63.5312C741.922 63.5312 726.043 67.8086 711.512 76.3633C696.98 84.8008 685.438 96.2852 676.883 110.816C668.445 125.348 664.227 141.227 664.227 158.453C664.227 175.68 668.445 191.559 676.883 206.09C685.438 220.621 696.98 232.164 711.512 240.719C726.043 249.156 741.922 253.375 759.148 253.375C775.203 253.375 790.145 249.625 803.973 242.125C817.801 234.625 829.051 224.488 837.723 211.715L848.094 218.922C838.25 233.453 825.477 244.938 809.773 253.375C794.188 261.812 777.312 266.031 759.148 266.031C739.695 266.031 721.707 261.227 705.184 251.617C688.66 242.008 675.594 228.941 665.984 212.418C656.375 195.895 651.57 177.906 651.57 158.453C651.57 139 656.375 121.012 665.984 104.488C675.594 87.9648 688.66 74.8984 705.184 65.2891C721.707 55.6797 739.695 50.875 759.148 50.875C777.312 50.875 794.188 55.0938 809.773 63.5312C825.477 71.9688 838.25 83.4531 848.094 97.9844ZM869.188 83.9219L858.641 90.7773C847.625 74.6055 833.328 61.832 815.75 52.457C798.289 42.9648 779.422 38.2188 759.148 38.2188C742.859 38.2188 727.273 41.3828 712.391 47.7109C697.508 54.0391 684.676 62.5938 673.895 73.375C663.23 84.0391 654.734 96.8125 648.406 111.695C642.078 126.578 638.914 142.164 638.914 158.453C638.914 174.742 642.078 190.328 648.406 205.211C654.734 220.094 663.23 232.926 673.895 243.707C684.676 254.371 697.508 262.867 712.391 269.195C727.273 275.523 742.859 278.688 759.148 278.688C779.539 278.688 798.465 273.941 815.926 264.449C833.387 254.957 847.625 242.125 858.641 225.953L868.836 233.512C856.648 251.324 840.887 265.445 821.551 275.875C802.332 286.188 781.531 291.344 759.148 291.344C735.125 291.344 712.918 285.426 692.527 273.59C672.137 261.637 655.965 245.465 644.012 225.074C632.176 204.684 626.258 182.477 626.258 158.453C626.258 134.43 632.176 112.223 644.012 91.832C655.965 71.4414 672.137 55.3281 692.527 43.4922C712.918 31.5391 735.125 25.5625 759.148 25.5625C781.648 25.5625 802.566 30.8359 821.902 41.3828C841.238 51.8125 857 65.9922 869.188 83.9219ZM889.93 69.5078L879.383 76.3633C866.023 56.793 848.738 41.3242 827.527 29.957C806.434 18.5898 783.641 12.9062 759.148 12.9062C739.461 12.9062 720.594 16.7734 702.547 24.5078C684.617 32.125 669.148 42.4375 656.141 55.4453C643.133 68.4531 632.762 83.9805 625.027 102.027C617.41 119.957 613.602 138.766 613.602 158.453C613.602 178.141 617.41 197.008 625.027 215.055C632.762 232.984 643.133 248.453 656.141 261.461C669.148 274.469 684.617 284.84 702.547 292.574C720.594 300.191 739.461 304 759.148 304C783.641 304 806.492 298.258 827.703 286.773C848.914 275.289 866.199 259.762 879.559 240.191L889.754 247.926C875.223 269.02 856.473 285.777 833.504 298.199C810.535 310.504 785.75 316.656 759.148 316.656C737.703 316.656 717.195 312.438 697.625 304C678.172 295.68 661.355 284.488 647.176 270.426C633.113 256.246 621.863 239.43 613.426 219.977C605.105 200.406 600.945 179.898 600.945 158.453C600.945 137.008 605.105 116.559 613.426 97.1055C621.863 77.5352 633.113 60.7188 647.176 46.6562C661.355 32.4766 678.172 21.2266 697.625 12.9062C717.195 4.46875 737.703 0.25 759.148 0.25C785.867 0.25 810.711 6.46094 833.68 18.8828C856.648 31.3047 875.398 48.1797 889.93 69.5078Z" fill="url(#paint0_linear_93_18)" fill-opacity="0.78"/>
<defs>
<linearGradient id="paint0_linear_93_18" x1="437.591" y1="11.2465" x2="449.617" y2="379.898" gradientUnits="userSpaceOnUse">
<stop stop-color="white"/>
<stop offset="1" stop-color="#1544E9" stop-opacity="0.36"/>
</linearGradient>
</defs>
</svg>
