<svg width="96" height="96" viewBox="0 0 96 96" fill="none" xmlns="http://www.w3.org/2000/svg">
<path d="M22.5 15C23.3284 15 24 14.3284 24 13.5C24 12.6716 23.3284 12 22.5 12C21.6716 12 21 12.6716 21 13.5C21 14.3284 21.6716 15 22.5 15Z" fill="white" stroke="white" stroke-width="1.2"/>
<path d="M16.5 15C17.3284 15 18 14.3284 18 13.5C18 12.6716 17.3284 12 16.5 12C15.6716 12 15 12.6716 15 13.5C15 14.3284 15.6716 15 16.5 15Z" fill="white" stroke="white" stroke-width="1.2"/>
<path d="M10.5 15C11.3284 15 12 14.3284 12 13.5C12 12.6716 11.3284 12 10.5 12C9.67157 12 9 12.6716 9 13.5C9 14.3284 9.67157 15 10.5 15Z" fill="white" stroke="white" stroke-width="1.2"/>
<path d="M91.5 21H4.5C3.672 21 3 20.328 3 19.5C3 18.672 3.672 18 4.5 18H91.5C92.328 18 93 18.672 93 19.5C93 20.328 92.328 21 91.5 21Z" fill="white" stroke="white" stroke-width="1.2"/>
<path d="M4.5 66C3.672 66 3 65.328 3 64.5V10.5C3 8.019 5.019 6 7.5 6H88.5C90.981 6 93 8.019 93 10.5V37.5C93 38.328 92.328 39 91.5 39C90.672 39 90 38.328 90 37.5V10.5C90 9.675 89.328 9 88.5 9H7.5C6.672 9 6 9.675 6 10.5V64.5C6 65.328 5.328 66 4.5 66Z" fill="white" stroke="white" stroke-width="1.2"/>
<path d="M66 93H31.5C30.672 93 30 92.328 30 91.5C30 90.672 30.672 90 31.5 90H34.5C36.981 90 39 87.981 39 85.5V82.5C39 81.672 39.672 81 40.5 81C41.328 81 42 81.672 42 82.5V85.5C42 87.189 41.439 88.746 40.497 90H55.503C54.561 88.746 54 87.189 54 85.5V76.5C54 75.672 54.672 75 55.5 75C56.328 75 57 75.672 57 76.5V85.5C57 87.981 59.019 90 61.5 90H66C66.828 90 67.5 90.672 67.5 91.5C67.5 92.328 66.828 93 66 93Z" fill="white" stroke="white" stroke-width="1.2"/>
<path d="M55.5 78H7.5C5.019 78 3 75.981 3 73.5V64.5C3 63.672 3.672 63 4.5 63H46.5C47.328 63 48 63.672 48 64.5C48 65.328 47.328 66 46.5 66H6V73.5C6 74.325 6.672 75 7.5 75H55.5C56.328 75 57 75.672 57 76.5C57 77.328 56.328 78 55.5 78Z" fill="white" stroke="white" stroke-width="1.2"/>
<path d="M55.5 42H52.5C51.672 42 51 41.328 51 40.5C51 39.672 51.672 39 52.5 39H55.5C56.328 39 57 39.672 57 40.5C57 41.328 56.328 42 55.5 42Z" fill="white" stroke="white" stroke-width="1.2"/>
<path d="M82.5 30H52.5C51.672 30 51 29.328 51 28.5C51 27.672 51.672 27 52.5 27H82.5C83.328 27 84 27.672 84 28.5C84 29.328 83.328 30 82.5 30Z" fill="white" stroke="white" stroke-width="1.2"/>
<path d="M82.5 36H52.5C51.672 36 51 35.328 51 34.5C51 33.672 51.672 33 52.5 33H82.5C83.328 33 84 33.672 84 34.5C84 35.328 83.328 36 82.5 36Z" fill="white" stroke="white" stroke-width="1.2"/>
<path d="M22.5 42H13.5C12.672 42 12 41.328 12 40.5C12 39.672 12.672 39 13.5 39H22.5C23.328 39 24 39.672 24 40.5C24 41.328 23.328 42 22.5 42Z" fill="white" stroke="white" stroke-width="1.2"/>
<path d="M43.5 30H13.5C12.672 30 12 29.328 12 28.5C12 27.672 12.672 27 13.5 27H43.5C44.328 27 45 27.672 45 28.5C45 29.328 44.328 30 43.5 30Z" fill="white" stroke="white" stroke-width="1.2"/>
<path d="M43.5 36H13.5C12.672 36 12 35.328 12 34.5C12 33.672 12.672 33 13.5 33H43.5C44.328 33 45 33.672 45 34.5C45 35.328 44.328 36 43.5 36Z" fill="white" stroke="white" stroke-width="1.2"/>
<path d="M72 81C60.42 81 51 71.577 51 60C51 48.423 60.42 39 72 39C76.056 39 79.989 40.158 83.376 42.345C84.072 42.795 84.27 43.722 83.82 44.418C83.37 45.108 82.446 45.318 81.747 44.862C78.849 42.99 75.477 42 72 42C62.073 42 54 50.073 54 60C54 69.927 62.073 78 72 78C81.927 78 90 69.927 90 60C90 58.074 89.697 56.181 89.103 54.369C88.845 53.58 89.274 52.734 90.06 52.476C90.846 52.212 91.695 52.647 91.953 53.43C92.646 55.548 93 57.756 93 60C93 71.577 83.58 81 72 81Z" fill="white" stroke="white" stroke-width="1.2"/>
<path d="M70.5 68.097C70.488 68.097 70.476 68.097 70.464 68.097C70.029 68.085 69.624 67.89 69.345 67.557L61.845 58.557C61.317 57.918 61.404 56.973 62.037 56.442C62.676 55.914 63.618 56.001 64.152 56.634L70.551 64.317L89.196 43.722C89.76 43.11 90.708 43.074 91.314 43.629C91.923 44.19 91.965 45.138 91.404 45.75L71.604 67.611C71.319 67.923 70.923 68.097 70.5 68.097Z" fill="white" stroke="white" stroke-width="1.2"/>
</svg>
