<svg width="98" height="97" viewBox="0 0 98 97" fill="none" xmlns="http://www.w3.org/2000/svg">
<path d="M20.021 0.394199L19.5227 0.769655V13.0658C19.5227 25.0992 19.5227 25.3432 19.906 25.7187C20.4809 26.2819 21.4966 26.2256 21.9948 25.6061C22.3973 25.118 22.3973 24.949 22.3973 13.9669V2.81589H25.176H27.9548V13.9669C27.9548 24.949 27.9548 25.118 28.3572 25.6061C28.8555 26.2256 29.8712 26.2819 30.4461 25.7187C30.8294 25.3432 30.8294 25.0992 30.8294 13.1409V0.919838L30.3503 0.46929L29.8904 -2.86102e-05H25.2144C20.7683 -2.86102e-05 20.5 0.0187435 20.021 0.394199Z" fill="white"/>
<path d="M32.9374 9.76177C32.5733 10.1185 32.5541 10.3813 32.5541 17.7965C32.5541 24.9865 32.5733 25.4934 32.8991 25.775C33.4165 26.2255 34.528 26.188 34.9688 25.6999C35.3137 25.3244 35.3329 24.8926 35.3904 18.7539L35.4479 12.2022H38.2075H40.9863V18.7727C40.9863 25.0991 41.0054 25.362 41.3695 25.7186C41.9061 26.2443 42.9218 26.2067 43.4392 25.6623C43.8608 25.2306 43.8608 25.1742 43.8608 17.7965C43.8608 10.569 43.8417 10.3625 43.4584 9.87441L43.0751 9.38631H38.1883C33.5698 9.38631 33.3015 9.40509 32.9374 9.76177Z" fill="white"/>
<path d="M55.2633 12.4651C53.4619 13.0283 52.1971 14.042 51.3156 15.6189L50.664 16.8016L50.5682 23.6537L50.4724 30.5058L28.3381 30.5996C8.27346 30.6935 6.12711 30.731 5.41804 31.0126C2.71593 32.0639 0.684561 34.4293 0.167135 37.0763C0.0138241 37.8835 -0.0245037 43.6655 0.0138241 57.6325L0.0713158 77.0623L0.588741 78.1324C1.60443 80.2537 3.61664 81.7931 5.89714 82.2248C6.45289 82.3187 7.81353 82.4126 8.88671 82.4126C10.5731 82.4126 10.9181 82.3562 11.3589 82.0183C11.9338 81.5866 12.0296 80.6667 11.5888 80.0472C11.3397 79.728 10.9947 79.6717 8.65674 79.5779C5.14975 79.4465 4.17239 78.9771 3.25252 76.9684C2.90757 76.2363 2.85008 75.7294 2.85008 73.3453V70.5857H37.5559H72.2617L71.5527 71.3554C69.8854 73.1763 68.4289 76.011 67.9882 78.3389L67.7582 79.5966H42.8643C18.2387 79.5966 17.9896 79.5966 17.6063 79.9721C17.0697 80.4977 17.108 81.3801 17.7021 81.9432L18.162 82.4126H24.3328C30.1011 82.4126 30.4844 82.4313 30.4078 82.7505C30.3503 82.9194 29.7562 85.3787 29.0855 88.1758L27.859 93.3008H25.1377C23.6429 93.3008 22.2823 93.3571 22.1098 93.4134C21.9182 93.4885 21.669 93.8076 21.5349 94.108C21.2283 94.8401 21.4774 95.6098 22.129 95.9102C22.4739 96.0604 27.1499 96.1167 38.9549 96.1167C55.2059 96.1167 55.3017 96.1167 55.8191 95.7225C56.4707 95.2156 56.509 94.2394 55.8958 93.6762C55.5125 93.3383 55.225 93.3008 52.6762 93.3008H49.8783L48.671 88.2697C48.0194 85.5101 47.4253 83.0696 47.3678 82.8256L47.272 82.4126H57.5247H67.7582L67.8924 83.4826C68.1798 85.8104 69.4638 88.6264 71.3035 90.8415C73.0474 92.9629 76.2861 94.934 79.2182 95.6662C81.0388 96.1355 84.8716 96.1355 86.5963 95.6849C91.8281 94.3145 96.025 90.1845 97.5581 84.9093C98.1138 82.9945 98.1521 79.3901 97.6347 77.5316C96.849 74.6782 94.8943 71.637 92.6713 69.8348C91.2148 68.6521 88.1486 67.169 86.213 66.7185C84.2775 66.268 81.058 66.2867 79.1799 66.7748L77.7809 67.1315V61.4621V55.7927L81.5754 55.7176L85.3507 55.6613L86.6346 55.0418C88.1103 54.3285 89.126 53.3147 89.835 51.8317L90.3333 50.7804L90.3908 44.3976C90.4483 38.1088 90.4483 37.9961 90.0458 37.4893C89.5859 36.9073 88.6469 36.7947 88.0144 37.2452C87.6695 37.508 87.6503 37.8459 87.5545 43.872C87.4395 51.0808 87.4204 51.1934 85.8489 52.2822L85.0249 52.8454L78.0109 52.9017L70.9969 52.958L67.7774 55.2859L64.5578 57.6325V55.774C64.5578 54.197 64.5003 53.8591 64.1554 53.4274L63.7721 52.9393H60.0926C56.9498 52.9393 56.2982 52.8829 55.6466 52.5826C54.6693 52.1508 53.6919 51.062 53.5386 50.2735C53.4811 49.9356 53.4619 42.389 53.4811 33.4906L53.5386 17.346L53.9985 16.6702C54.2477 16.3135 54.7651 15.8067 55.1292 15.5626L55.8191 15.1121L70.0962 15.0558C85.9831 14.9994 85.4273 14.9619 86.5772 16.2384C86.8838 16.5951 87.2479 17.1959 87.3437 17.5901C87.4779 18.0219 87.5545 20.8566 87.5545 24.8176C87.5545 31.1065 87.5737 31.3693 87.9378 31.726C88.5127 32.2892 89.5284 32.2329 90.0458 31.5946C90.4483 31.0877 90.4483 30.9751 90.3908 24.123L90.3333 17.1771L89.7775 16.0132C89.1451 14.6428 87.8036 13.3287 86.4622 12.7092L85.5423 12.2962L70.7861 12.2586C59.2686 12.2211 55.8574 12.2774 55.2633 12.4651ZM50.6065 42.1825L50.664 50.9681L51.1623 52.0006C51.7947 53.3147 52.9828 54.4786 54.3626 55.1357C55.3975 55.6238 55.6466 55.6613 58.5787 55.7176L61.6833 55.7927V58.2895C61.6833 60.5235 61.7216 60.8238 62.0857 61.2744C62.8714 62.2506 63.3122 62.0628 67.854 58.7588L71.9934 55.7552H73.4499H74.9063V61.7625V67.7698H38.8782H2.85008V52.8829C2.85008 40.2113 2.88841 37.8459 3.13754 37.0387C3.50165 35.8185 4.76647 34.4293 6.01212 33.8661L6.97032 33.4156H28.7597H50.549L50.6065 42.1825ZM81.4221 70.9048V72.5568L80.3106 72.876C75.8837 74.1525 73.0283 79.1649 74.2548 83.4826C74.3506 83.8393 74.1781 83.9895 72.8175 84.6465L71.2844 85.4162L71.0736 84.7028C70.1729 81.6241 70.4412 78.8457 71.9551 75.8609C73.4499 72.876 75.9795 70.7359 79.1991 69.7221C81.4604 69.0088 81.4221 68.99 81.4221 70.9048ZM86.5388 69.7409C88.9535 70.4731 91.3873 72.1626 92.7479 74.0023L93.1312 74.5092L91.6173 75.2601L90.1033 76.011L89.1834 75.0912C88.1486 74.0587 86.5772 73.1763 85.2165 72.8384L84.2966 72.6132V70.9424C84.2966 68.9712 84.22 69.0088 86.5388 69.7409ZM85.389 75.8796C87.6503 76.9121 89.011 79.1461 88.8385 81.5115C88.4935 86.4863 82.6677 88.8704 78.8733 85.5852C76.3436 83.4075 76.2286 79.5028 78.6241 77.1186C80.4064 75.3352 83.1277 74.8471 85.389 75.8796ZM94.7985 78.1136C94.9326 78.5641 95.0859 79.653 95.1434 80.5353C95.3734 83.9332 94.1086 87.1058 91.5023 89.6589C89.0685 92.0242 86.8071 93.0567 83.6259 93.2445C81.4221 93.3571 79.5632 93.0004 77.4168 91.9867C76.1137 91.3672 75.4813 90.9166 74.159 89.6213L72.53 88.0069L74.044 87.2184L75.5771 86.4299L76.6311 87.3873C77.206 87.913 78.0684 88.57 78.5475 88.8329C83.5684 91.6675 90.4099 88.6076 91.5981 83.0133C91.8089 82.0183 91.7514 79.8219 91.4831 78.9396C91.3873 78.6205 91.5981 78.4515 92.7671 77.8695C93.5336 77.4941 94.2427 77.1937 94.3577 77.2313C94.4535 77.25 94.6452 77.6443 94.7985 78.1136ZM45.5281 87.4812C46.1797 90.222 46.7737 92.6437 46.8312 92.869L46.9271 93.3008H38.859H30.791L30.906 92.869C30.9635 92.6437 31.5576 90.2033 32.2092 87.4249L33.4165 82.4126L38.8782 82.4501L44.3208 82.5064L45.5281 87.4812Z" fill="white"/>
<path d="M12.3554 38.5969C9.78741 39.4042 8.23514 41.2814 8.06266 43.8345C7.90935 46.2938 9.11668 48.2837 11.3972 49.3913C13.5627 50.4426 15.939 50.161 17.568 48.6779C19.1777 47.1761 17.4146 45.0548 15.7282 46.4627C14.4251 47.5328 12.9878 47.4577 11.7613 46.275C10.2857 44.8107 10.7648 42.3327 12.7003 41.4692C13.6968 41.0186 14.2334 41.0374 15.2875 41.4879C16.4373 42.0136 17.108 41.976 17.5871 41.3753C17.8171 41.0937 17.9896 40.7558 17.9896 40.6244C17.9896 39.0287 14.7317 37.846 12.3554 38.5969Z" fill="white"/>
<path d="M21.3049 38.4842C20.5383 38.7846 20.4808 39.1976 20.4808 44.2475C20.4808 48.828 20.5 49.1284 20.8641 49.5039C21.4007 50.0858 21.9181 50.1797 22.5697 49.8418C23.2021 49.5414 23.3171 49.2223 23.3938 47.8331L23.4512 46.9508L24.6011 48.2836C25.9426 49.823 26.5558 50.1985 27.2649 49.9356C27.8973 49.7104 28.4147 48.9219 28.2614 48.3963C28.2039 48.1522 27.6673 47.4389 27.0732 46.7818L26 45.5991L26.7858 44.9421C28.1272 43.7969 28.5297 42.5579 28.0506 40.981C27.7056 39.8546 26.6325 38.8034 25.5209 38.503C24.6586 38.259 21.899 38.259 21.3049 38.4842ZM25.0802 41.4879C25.291 41.6944 25.4635 41.9384 25.4635 42.0511C25.4635 42.4828 24.6777 42.9897 24.0262 42.9897H23.3554V42.0511V41.1124H24.0262C24.4478 41.1124 24.8502 41.2626 25.0802 41.4879Z" fill="white"/>
<path d="M32.5925 38.916C32.2475 39.2727 32.0176 40.2113 31.3277 43.9846C30.427 48.8656 30.4078 49.3349 31.1935 49.7291C31.4043 49.8418 31.7876 49.9356 32.0559 49.9356C32.9183 49.9356 33.2632 49.3724 33.6273 47.3262C33.819 46.2749 34.0106 45.4865 34.0873 45.5616C34.1639 45.6554 34.4514 46.5377 34.758 47.5515C35.3521 49.5602 35.7162 49.9919 36.7894 49.9919C37.7284 49.9919 38.1883 49.3724 38.7824 47.2887C39.0699 46.2562 39.3382 45.4489 39.3765 45.4865C39.4148 45.524 39.6256 46.3876 39.8364 47.4201C40.1239 48.7717 40.3347 49.3724 40.6222 49.5977C41.5037 50.3299 42.9027 49.7479 42.9027 48.6591C42.9027 48.0959 41.2929 39.7044 41.0821 39.1788C40.8904 38.7283 40.373 38.4842 39.6065 38.4842C38.4758 38.4842 38.2075 38.8409 37.5368 41.2438C37.1918 42.4641 36.8469 43.5716 36.7894 43.7031C36.7127 43.8532 36.3294 42.8958 35.9078 41.4879C35.3904 39.7795 35.0455 38.9348 34.7772 38.747C34.1639 38.334 33.0716 38.4091 32.5925 38.916Z" fill="white"/>
<path d="M8.50345 53.9718C8.23516 54.2158 8.02436 54.6476 8.02436 54.9104C8.02436 55.1732 8.23516 55.605 8.50345 55.849L8.96339 56.3184H26.3259C43.4201 56.3184 43.6692 56.3184 44.0525 55.9429C44.4358 55.5674 44.5699 54.5537 44.2825 54.1407C43.8608 53.5212 43.4009 53.5024 26.1342 53.5024H8.96339L8.50345 53.9718Z" fill="white"/>
<path d="M8.42676 60.1854C7.96683 60.7674 7.9285 60.9927 8.25428 61.6685C8.38843 61.9689 8.71422 62.2129 9.15499 62.3443C9.61492 62.4569 13.0644 62.5133 19.1011 62.4757L28.3764 62.4194L28.7405 61.9689C29.2196 61.4057 29.2004 60.5421 28.7213 60.0728C28.3572 59.7161 28.0889 59.6973 18.5836 59.6973H8.81004L8.42676 60.1854Z" fill="white"/>
<path d="M6.97034 15.1121L6.49124 15.5626V20.4623C6.49124 25.0992 6.5104 25.362 6.87452 25.7187C7.44943 26.2819 8.46512 26.2256 8.96338 25.6061C9.34666 25.1367 9.36582 24.8739 9.36582 21.2883V17.4587H12.1446H14.9234V21.2883C14.9234 24.8739 14.9425 25.1367 15.3258 25.6061C15.8241 26.2256 16.8397 26.2819 17.4147 25.7187C17.7788 25.362 17.7979 25.0992 17.7979 20.3872V15.4124L17.2997 15.037C16.8206 14.6615 16.5523 14.6428 12.1063 14.6428H7.43027L6.97034 15.1121Z" fill="white"/>
<path d="M60.9167 18.9042C60.2268 19.1858 59.5369 19.8053 59.192 20.4623C58.8662 21.063 58.8087 21.5699 58.8087 23.3721C58.8087 25.8501 59.0003 26.4696 60.016 27.3519C61.5683 28.6848 64.1554 28.1967 65.0178 26.3945C65.2478 25.9064 65.3244 25.1743 65.3244 23.3158C65.3244 21.1194 65.2861 20.8378 64.9028 20.2746C64.1938 19.2608 63.5422 18.9042 62.3157 18.8291C61.7024 18.8103 61.07 18.8291 60.9167 18.9042ZM62.4115 23.4096C62.3732 24.8927 62.2965 25.2494 62.0666 25.2494C61.8366 25.2494 61.7599 24.8927 61.7216 23.4096C61.6641 21.6825 61.6833 21.5887 62.0666 21.5887C62.4498 21.5887 62.469 21.6825 62.4115 23.4096Z" fill="white"/>
<path d="M69.7896 18.9981C69.0422 19.3547 68.9463 19.993 69.0038 23.7476C69.0613 27.183 69.0805 27.2581 69.5213 27.6148C70.0962 28.0841 70.9777 28.0653 71.4568 27.596C71.8209 27.2393 71.8401 26.9765 71.8401 23.4848C71.8401 20.1995 71.8018 19.7114 71.5143 19.3735C71.0927 18.8854 70.3453 18.7165 69.7896 18.9981Z" fill="white"/>
<path d="M77.1102 19.2044C75.8837 19.8803 75.4812 20.8564 75.4812 23.2781C75.4812 25.7186 75.692 26.4695 76.5352 27.2017C78.2025 28.6284 80.598 28.3092 81.6903 26.4883C82.1503 25.6998 82.3611 22.4897 82.0161 21.2694C81.767 20.3496 81.0388 19.4485 80.253 19.0543C79.4482 18.6413 78.0109 18.6976 77.1102 19.2044ZM79.2757 23.2781C79.314 24.9677 79.1607 25.4746 78.6624 25.2868C78.4133 25.193 78.3558 24.8551 78.3558 23.5034C78.3558 21.7763 78.4325 21.5323 78.9307 21.6261C79.1607 21.6824 79.2374 22.0204 79.2757 23.2781Z" fill="white"/>
<path d="M69.6171 29.6611C68.7356 29.8676 67.9115 30.5058 67.5091 31.2943C67.2216 31.8762 67.145 32.4394 67.145 34.2604C67.145 36.2879 67.1833 36.5882 67.6049 37.2828C68.2565 38.428 69.2722 38.916 70.7095 38.8222C72.0701 38.7283 72.7217 38.3153 73.3349 37.1702C73.699 36.4568 73.7565 36.0438 73.7565 34.2228C73.7565 32.8524 73.6607 31.8762 73.4882 31.482C73.1624 30.6936 72.2234 29.9239 71.3035 29.6611C70.5178 29.4546 70.4603 29.4546 69.6171 29.6611ZM70.8436 34.2228C70.9011 35.9124 70.8628 36.0438 70.5178 36.0438C70.3262 36.0438 70.0962 35.9124 70.0387 35.7434C69.8279 35.199 69.9237 32.7398 70.1537 32.5145C70.6328 32.0452 70.7861 32.4394 70.8436 34.2228Z" fill="white"/>
<path d="M61.1467 30.0927C60.7442 30.5057 60.7251 30.6934 60.7251 34.2978V38.0899L61.2233 38.4653C61.7982 38.9159 62.0474 38.9534 62.7181 38.6531C63.523 38.2964 63.638 37.6957 63.5613 33.8848C63.5038 30.4494 63.4847 30.3743 63.0439 30.0176C62.4307 29.5295 61.6449 29.567 61.1467 30.0927Z" fill="white"/>
<path d="M77.8959 30.0553L77.3977 30.4307V34.1853V37.9398L77.8959 38.4279C78.2792 38.8034 78.49 38.8785 78.9883 38.7846C80.1381 38.5593 80.1764 38.4655 80.2339 34.3542L80.2914 30.5997L79.8123 30.1304C79.2182 29.5672 78.5667 29.5296 77.8959 30.0553Z" fill="white"/>
<path d="M60.5335 40.7744C59.1728 41.4502 58.8087 42.3513 58.8087 45.0546C58.8087 46.9318 58.8662 47.3448 59.2495 48.0582C60.1118 49.7478 62.5265 50.2734 64.0788 49.0907C65.1903 48.2835 65.3628 47.6452 65.2861 44.7542C65.2286 42.5953 65.1711 42.2011 64.8262 41.7318C64.3279 41.056 62.9289 40.3614 62.0666 40.3614C61.6833 40.3614 60.9934 40.5491 60.5335 40.7744ZM62.4498 45.0733C62.4498 46.7629 62.4115 46.9506 62.1241 46.8943C61.8366 46.838 61.7791 46.5752 61.7216 45.2611C61.6641 43.4964 61.7216 43.1773 62.1624 43.1773C62.3923 43.1773 62.4498 43.4964 62.4498 45.0733Z" fill="white"/>
<path d="M77.206 40.7933C75.8262 41.5067 75.4812 42.3703 75.4812 45.0548C75.4812 46.9884 75.5387 47.3451 75.922 48.0584C76.5352 49.2036 77.7042 49.8043 79.084 49.6917C80.7705 49.579 81.8628 48.4527 82.1119 46.6129C82.2844 45.1674 82.0928 42.7833 81.7478 42.1262C80.8663 40.4554 78.9307 39.8923 77.206 40.7933ZM79.2182 43.6093C79.2757 43.8345 79.314 44.6605 79.2757 45.4302C79.2182 46.688 79.1799 46.8382 78.8349 46.8382C78.49 46.8382 78.4516 46.688 78.3941 45.2613C78.3558 44.3977 78.375 43.5717 78.4325 43.4215C78.5858 43.0273 79.1032 43.1399 79.2182 43.6093Z" fill="white"/>
<path d="M69.368 41.0374C68.9847 41.5067 68.9656 41.7883 68.9656 45.0548C68.9656 48.3212 68.9847 48.6028 69.368 49.0721C69.8663 49.6916 70.882 49.748 71.4569 49.1848C71.821 48.8281 71.8402 48.5653 71.8402 45.0548C71.8402 41.5442 71.821 41.2814 71.4569 40.9247C70.882 40.3616 69.8663 40.4179 69.368 41.0374Z" fill="white"/>
</svg>
