<svg width="104" height="105" viewBox="0 0 104 105" fill="none" xmlns="http://www.w3.org/2000/svg">
<path d="M11.5736 1.02975C8.42638 1.88301 6.74111 4.28024 6.7208 7.97768C6.7208 10.6796 7.41116 12.6503 8.97461 14.4583L9.06708 14.5632C9.29098 14.8171 9.14654 15.2181 8.81217 15.271C5.23857 15.9007 2.94415 16.8962 1.54314 18.4605C0.142122 20.0248 0.0202942 20.6343 0.0202942 25.896V29.6137C0.0202942 30.1471 0.232093 30.6586 0.609127 31.0358C0.934 31.3609 1.401 31.625 1.64466 31.625C1.88831 31.625 2.35532 31.3609 2.68019 31.0358C3.05723 30.6586 3.26903 30.1471 3.26903 29.6137V26.0179C3.26903 20.7765 3.30963 20.6546 5.3604 19.6388C9.60405 17.5666 19.6142 17.7901 22.7817 20.0654C23.8985 20.8577 23.9797 21.2437 23.9797 25.9976C23.9797 30.0404 24 30.3858 24.3858 30.8733C24.6091 31.1374 25.0152 31.4422 25.2995 31.5031C25.9695 31.6656 26.9848 31.1374 27.1472 30.528C27.2081 30.2842 27.2284 27.9276 27.1878 25.3069C27.1269 19.9232 27.066 19.7201 25.3604 18.0948C23.9391 16.7134 21.7259 15.8195 18.4365 15.271C18.1045 15.2185 17.963 14.8187 18.1881 14.569L18.4162 14.3161C20.67 11.8173 21.2995 7.30726 19.8172 4.25993C18.4568 1.51733 14.9238 0.115553 11.5736 1.02975ZM15.8376 4.54435C17.1574 5.53981 17.6853 7.226 17.2792 9.25756C16.8528 11.472 15.7969 12.894 14.2335 13.3613C13.5431 13.5645 13.3401 13.5441 12.5076 13.1378C10.8629 12.3455 9.96953 10.5374 9.96953 7.99799C9.96953 5.92581 10.7005 4.64592 12.1218 4.19898C13.0761 3.89425 15.2284 4.0974 15.8376 4.54435Z" fill="white"/>
<path d="M88.0609 1.07039C85.3401 1.94396 83.7563 3.97551 83.3706 7.04316C83.0863 9.42009 84.0609 12.6096 85.5838 14.2958C85.9018 14.6595 85.7108 15.2311 85.238 15.3304L84.264 15.5351C80.6497 16.2867 78.2538 17.8104 77.2589 19.9435C76.7919 20.9187 76.7716 21.1625 76.7716 25.6725C76.7716 28.2526 76.8325 30.528 76.8934 30.7108C77.0964 31.1984 78.1117 31.6453 78.7005 31.5031C78.9848 31.4422 79.3909 31.1374 79.6142 30.8733C80 30.3858 80.0203 30.0404 80.0203 25.9976C80.0203 21.2234 80.1015 20.8577 81.2183 20.0451C84.4061 17.7901 94.3756 17.5463 98.6396 19.6388C100.69 20.6546 100.731 20.7765 100.731 26.0179V29.6137C100.731 30.1471 100.943 30.6586 101.32 31.0358C101.645 31.3609 102.112 31.625 102.355 31.625C102.599 31.625 103.066 31.3609 103.391 31.0358C103.768 30.6586 103.98 30.1471 103.98 29.6137V25.896C103.98 20.6343 103.858 20.0248 102.457 18.4605C101.056 16.8962 98.7614 15.9008 95.1878 15.271C94.8535 15.2181 94.709 14.8171 94.9329 14.5632L95.0254 14.4583C96.5685 12.6909 97.2792 10.6797 97.2792 8.03863C97.2792 4.82877 96.1827 2.81753 93.8071 1.57828C92.6701 1.00944 92.203 0.887547 90.7614 0.826601C89.5838 0.765654 88.7513 0.846916 88.0609 1.07039ZM91.8173 4.2193C93.3604 4.74751 94.0305 5.88518 94.0305 7.998C94.0305 10.5374 93.1371 12.3455 91.4924 13.1378C90.6396 13.5441 90.4569 13.5645 89.7056 13.341C87.8579 12.7925 86.6193 10.6187 86.6396 7.95737C86.6396 6.4337 86.9442 5.64139 87.797 4.84908C88.6497 4.03646 90.4366 3.77236 91.8173 4.2193Z" fill="white"/>
<path d="M54.2944 12.6502C53.137 13.0769 51.6954 14.3974 51.0254 15.6569C50.4771 16.693 50.4771 16.7133 50.4162 21.6297L50.366 25.6845C50.3592 26.2354 50.5749 26.7658 50.9645 27.1555C51.6954 27.8869 52.203 27.9275 52.9543 27.2774C53.3161 26.9672 53.5286 26.5176 53.5388 26.0411L53.6244 22.036C53.7259 17.7088 53.7665 17.2619 54.132 16.754C55.0457 15.5554 54.8426 15.5757 64.0406 15.5757C72.5888 15.5757 73.3198 15.5147 73.8477 14.8037C74.2741 14.2348 74.1929 13.2597 73.665 12.7721C73.198 12.3252 73.1573 12.3252 64.1624 12.3455C56.7513 12.3455 55.0051 12.4064 54.2944 12.6502Z" fill="white"/>
<path d="M13.0761 29.8778C12.7153 30.1872 12.5076 30.6389 12.5076 31.1143V39.1823C12.5076 45.9271 12.5685 48.2024 12.7716 48.9135C13.1777 50.2543 14.3553 51.6967 15.6548 52.428C16.3875 52.8412 17.2125 53.063 18.0536 53.073L21.9289 53.1188C27.0254 53.1797 27.0863 53.1797 27.5533 52.7328C27.8376 52.4687 28.0406 52.0421 28.0406 51.717C28.0406 50.0511 27.5939 49.9089 22.2132 49.9089C18.1929 49.9089 17.7259 49.8683 17.1371 49.5026C15.7157 48.6494 15.7766 48.9744 15.6548 39.0807L15.5604 30.7838C15.5559 30.3906 15.3743 30.0204 15.066 29.7762C14.4365 29.248 13.7665 29.2886 13.0761 29.8778Z" fill="white"/>
<path d="M49.0761 30.8531C48.7919 31.1172 48.3452 31.8892 48.0812 32.6003C47.7728 33.4231 47.111 34.0637 46.2785 34.3451L46.0914 34.4084C45.2589 34.6725 44.1624 35.1397 43.6345 35.4241C43.0173 35.7587 42.2829 35.8003 41.6319 35.5376L41.401 35.4445C39.5736 34.6928 39.5533 34.6928 38.8833 34.9772C38.0914 35.3226 35.4112 38.1261 35.2284 38.8168C35.1472 39.2028 35.269 39.7514 35.7157 40.7671C36.1158 41.658 36.1122 42.6782 35.7058 43.5662L35.5736 43.8551C35.1269 44.7896 34.6802 45.9273 34.5584 46.3742C34.3553 47.1665 34.2538 47.2478 33.0558 47.6744C30.9442 48.4464 30.8833 48.5277 30.8833 51.5344C30.8833 53.4034 30.9645 54.1957 31.1675 54.5005C31.33 54.7239 32.1015 55.1709 32.8731 55.4756L32.9579 55.5083C33.8038 55.8348 34.4584 56.5238 34.7411 57.3853C34.9848 58.137 35.4518 59.2746 35.7767 59.9044C36.1488 60.6363 36.1677 61.4977 35.8282 62.2452L35.7564 62.4032C35.4112 63.1549 35.1472 63.9472 35.1472 64.1707C35.1472 64.4348 35.8985 65.349 37.0152 66.4866C39.1675 68.6807 39.3097 68.7214 41.2995 67.8072L41.5414 67.6996C42.1982 67.4075 42.9511 67.4246 43.5939 67.7462C44.1421 68.0306 45.2589 68.5182 46.0914 68.8229L46.3024 68.8961C47.1334 69.1844 47.7928 69.8277 48.1015 70.6513C48.8528 72.7235 48.9137 72.7642 52 72.7642C55.066 72.7642 55.0457 72.7642 55.8782 70.7123C56.2137 69.8472 56.9059 69.1687 57.7775 68.8505L57.9086 68.8026C58.7411 68.5182 59.8579 68.0306 60.4061 67.7462C61.0489 67.4246 61.8018 67.4075 62.4586 67.6996L62.7005 67.8072C64.6904 68.7214 64.8325 68.6807 66.9848 66.4866C68.1015 65.349 68.8528 64.4348 68.8528 64.1707C68.8528 63.9472 68.5685 63.1346 68.2437 62.3829L68.1379 62.1508C67.8076 61.4259 67.8317 60.5888 68.2031 59.8841C68.5279 59.2543 68.9949 58.137 69.2386 57.3853C69.5213 56.5238 70.1759 55.8348 71.0218 55.5083L71.1066 55.4756C71.8985 55.1709 72.6701 54.7239 72.8325 54.5005C73.0355 54.1957 73.1168 53.4034 73.1168 51.5344C73.1168 48.5277 73.0558 48.4464 70.9442 47.6744C69.7462 47.2478 69.6447 47.1665 69.4416 46.3742C69.3198 45.9273 68.8731 44.7896 68.4467 43.8551L68.327 43.6033C67.8994 42.7038 67.8765 41.6644 68.264 40.7468C68.6904 39.7514 68.8325 39.1216 68.7513 38.7762C68.5888 38.1058 65.7259 35.16 65.0152 34.9163C64.4467 34.7131 64.1218 34.7944 62.1929 35.5867C61.3401 35.9524 61.3401 35.9524 60.3655 35.4241C59.8376 35.1397 58.7208 34.6725 57.8883 34.3881L57.6832 34.3187C56.8616 34.041 56.2071 33.4108 55.8985 32.6003C55.1675 30.5687 54.8833 30.4062 52 30.4062C49.7868 30.4062 49.5432 30.4468 49.0761 30.8531ZM53.3401 34.9569C53.6041 35.607 53.9289 36.2774 54.0508 36.4196C54.1726 36.5618 55.066 36.9275 56.0203 37.2119C56.9949 37.5167 58.4366 38.1058 59.2487 38.5527C60.9543 39.4873 61.4619 39.5279 62.9442 38.8168L63.2765 38.6657C63.7483 38.4511 64.3037 38.5519 64.6701 38.9184C65.027 39.2878 65.1281 39.835 64.9268 40.3075L64.731 40.7671C64.4264 41.4579 64.1827 42.1689 64.1827 42.3518C64.1827 42.5346 64.6498 43.591 65.198 44.7287C65.7665 45.846 66.3553 47.3088 66.5178 47.9792C66.8833 49.4013 67.1472 49.706 68.7107 50.3155C69.868 50.7624 69.868 50.7624 69.868 51.636C69.868 52.1613 69.5417 52.6313 69.0496 52.8149L68.6701 52.9565C68 53.2003 67.3097 53.5659 67.1269 53.7691C66.9645 53.9519 66.6193 54.7849 66.3959 55.6178C66.1726 56.4508 65.5838 57.8728 65.0761 58.7871C64.5888 59.7216 64.1827 60.6358 64.1827 60.8186C64.1827 61.0218 64.4264 61.7531 64.731 62.4642L64.9576 63.0137C65.1407 63.4574 65.0437 63.9673 64.7107 64.3129C64.3682 64.6677 63.8425 64.7747 63.3886 64.5819L62.6599 64.2723L62.1101 64.0462C61.519 63.8031 60.8506 63.8338 60.2843 64.13C58.2741 65.2271 57.0355 65.7553 55.7767 66.0803C54.2538 66.4663 53.8883 66.7914 53.2995 68.3557L53.1748 68.6944C52.9935 69.1866 52.5246 69.5137 52 69.5137C51.4754 69.5137 51.0065 69.1866 50.8252 68.6944L50.7005 68.3557C50.1117 66.7914 49.7462 66.4663 48.2234 66.0803C46.9645 65.7553 45.7259 65.2271 43.7157 64.13C43.1494 63.8338 42.481 63.8031 41.8899 64.0462L41.3401 64.2723L40.6114 64.5819C40.1575 64.7747 39.6318 64.6677 39.2893 64.3129C38.9563 63.9673 38.8594 63.4574 39.0424 63.0137L39.269 62.4642C39.5736 61.7531 39.8173 61.0218 39.8173 60.8186C39.8173 60.6358 39.4112 59.7216 38.9239 58.7871C38.4162 57.8728 37.8274 56.4508 37.6041 55.6178C37.3807 54.7849 37.0355 53.9519 36.8731 53.7691C36.6904 53.5659 36 53.2003 35.33 52.9565L34.9504 52.8149C34.4583 52.6313 34.132 52.1613 34.132 51.636C34.132 50.7624 34.132 50.7624 35.3097 50.3155C36.8528 49.706 37.1168 49.4013 37.4822 47.9792C37.6447 47.3088 38.2335 45.846 38.802 44.7287C39.3503 43.591 39.8173 42.5346 39.8173 42.3518C39.8173 42.1689 39.5736 41.4579 39.269 40.7671L39.0733 40.3075C38.8719 39.835 38.9731 39.2878 39.33 38.9184C39.6963 38.5519 40.2517 38.4511 40.7235 38.6657L41.0558 38.8168C41.665 39.1013 42.3959 39.3451 42.6802 39.3451C42.9645 39.3451 44.0812 38.8981 45.1371 38.3496C46.2132 37.8011 47.4315 37.2932 47.8782 37.2119C49.7665 36.8666 50.1523 36.4602 51.0457 34.0021C51.1472 33.7176 51.3706 33.6567 52.0203 33.6973C52.8325 33.7583 52.8731 33.7989 53.3401 34.9569Z" fill="white"/>
<path d="M49.8883 41.0108C49.3401 41.1124 48.2031 41.4984 47.3706 41.8844C45.5228 42.758 43.2081 44.952 42.3959 46.6585C39.4721 52.7532 42.2944 59.6402 48.6294 61.8546C50.5584 62.525 53.3401 62.5453 55.2487 61.8952C61.665 59.7418 64.5482 52.7938 61.6041 46.6585C60.8731 45.1349 58.5584 42.8392 56.8934 42.0063C54.7208 40.9092 52.2437 40.5436 49.8883 41.0108ZM54.6802 44.566C56.1827 45.1552 57.4213 46.1507 58.2741 47.4712C61.2589 52.0828 58.6193 58.0556 53.1777 59.051C50.0711 59.6402 46.6193 57.7915 45.1371 54.7848C44.6498 53.7893 44.5888 53.4439 44.5888 51.6359C44.5888 49.8075 44.6498 49.4824 45.1777 48.3854C46.9239 44.8301 51.0863 43.144 54.6802 44.566Z" fill="white"/>
<path d="M76.8731 50.1324C75.8579 50.7216 75.6345 51.9608 76.4264 52.7125C76.8528 53.1188 77.1168 53.1391 81.6853 53.2001C86.9645 53.261 86.9848 53.2813 88.0203 54.6628C88.4264 55.191 88.4467 55.516 88.5076 62.8093L88.5631 69.7286C88.5665 70.1583 88.7622 70.5639 89.0965 70.834C89.7868 71.3825 90.4366 71.3419 91.1269 70.7527C91.4882 70.4429 91.6979 69.9921 91.7022 69.5162L91.7564 63.5001C91.8376 54.6018 91.6751 53.647 89.7665 51.717C88.2437 50.1934 87.6142 50.0511 82.0508 49.9699C78.7411 49.9293 77.1574 49.9699 76.8731 50.1324Z" fill="white"/>
<path d="M12.0203 74.0845C9.92893 74.5314 8.24365 75.8316 7.37056 77.7413C6.94416 78.6351 6.82233 79.2446 6.76142 80.8089C6.63959 83.6328 7.30964 85.7659 8.8731 87.4927C9.58376 88.285 9.58376 88.285 9.11675 88.3866C4.12183 89.3821 1.98985 90.5198 0.71066 92.8154C0.324007 93.5224 0.116607 94.3135 0.106623 95.1193L0.0609137 98.8085L0.00885958 103.027C0.00319432 103.486 0.18302 103.928 0.507614 104.253C1.11675 104.863 2.01015 104.923 2.6802 104.375C3.16751 103.989 3.16751 103.928 3.26904 99.1742L3.34539 95.5533C3.36143 94.7921 3.69438 94.0722 4.26396 93.5671C6.39594 91.6777 12.8731 90.8245 18.0914 91.7387C20.3452 92.145 22.1929 92.7545 22.8629 93.3436C23.9594 94.2578 23.9797 94.4 23.9797 99.0117C23.9797 103.583 24.0812 104.152 24.934 104.537C25.6853 104.883 26.1929 104.802 26.7411 104.253C27.0657 103.928 27.2456 103.486 27.24 103.027L27.1878 98.7069L27.1401 94.7724C27.1314 94.0624 26.938 93.3669 26.5787 92.7545C25.868 91.5559 24.731 90.5401 23.3503 89.8697C22.1726 89.3008 19.3706 88.5085 18.4569 88.5085C18.132 88.5085 17.8883 88.4476 17.8883 88.3866C17.8883 88.3257 18.1726 87.9194 18.4975 87.4927C21.3198 83.9375 21.3401 78.4929 18.5381 75.7707C17.0964 74.3486 14.2538 73.6172 12.0203 74.0845ZM15.736 77.7006C16.6091 78.2085 17.0355 78.9196 17.2995 80.2401C17.7259 82.3123 16.7716 84.9736 15.1878 86.1519C14.3147 86.802 12.8934 86.7411 11.9391 86.0097C10.7208 85.0752 10.1117 83.6531 10.0305 81.4996C9.92893 79.4884 10.2132 78.6351 11.2284 77.8835C12.3046 77.0912 14.5178 76.9896 15.736 77.7006Z" fill="white"/>
<path d="M88.8122 74.0845C85.8274 74.7142 83.9391 76.7255 83.4518 79.7931C83.0254 82.4138 83.8376 85.3799 85.5228 87.5131C86.2132 88.3866 86.2741 88.346 84.3858 88.6914C81.4619 89.2602 79.066 90.4994 77.8883 92.0434C76.8731 93.3639 76.7919 93.9328 76.7716 99.032V103.062C76.7716 103.511 76.9549 103.942 77.2792 104.253C77.8071 104.802 78.3147 104.883 79.066 104.537C79.9188 104.152 80.0203 103.583 80.0203 99.0117C80.0203 94.4 80.0406 94.2578 81.1371 93.3436C81.8071 92.7545 83.6548 92.145 85.9086 91.7387C91.1269 90.8245 97.6041 91.6777 99.736 93.5671C100.306 94.0722 100.639 94.7921 100.655 95.5533L100.731 99.1742C100.832 103.928 100.832 103.989 101.32 104.375C101.99 104.923 102.883 104.863 103.492 104.253C103.817 103.928 103.997 103.486 103.991 103.027L103.939 98.8085C103.878 93.9125 103.878 93.8921 103.33 92.856C102.274 90.8448 100.244 89.5852 96.9137 88.8742C95.8376 88.6507 94.8223 88.4273 94.6599 88.3866C94.4772 88.3257 94.6193 88.0413 95.1066 87.4927C96 86.5176 96.5279 85.5221 96.9746 83.9578C97.4619 82.2716 97.3198 79.2446 96.6904 77.7819C96.1015 76.4411 94.3959 74.8565 93.0965 74.4095C91.8985 74.0032 89.9086 73.8407 88.8122 74.0845ZM92.4264 77.6397C92.731 77.8022 93.198 78.2288 93.4619 78.5945C93.868 79.1837 93.9289 79.4884 93.9289 81.2965C93.9289 83.1046 93.868 83.4499 93.3807 84.3845C92.6091 85.8472 91.5939 86.5785 90.3553 86.5785C89.7056 86.5785 89.198 86.4363 88.8122 86.1519C86.2538 84.2829 85.7868 79.3056 88.0406 77.8225C89.1371 77.1115 91.2081 77.0099 92.4264 77.6397Z" fill="white"/>
<path d="M50.8833 76.0145C50.559 76.326 50.3756 76.7563 50.3756 77.206V81.0325C50.3756 85.1565 50.335 85.6238 49.9696 86.213C49.1168 87.635 49.4416 87.5741 39.5533 87.696L31.2613 87.7905C30.8681 87.795 30.4978 87.9767 30.2538 88.2851C29.7056 88.9556 29.7665 89.8494 30.3756 90.4589C30.7004 90.7839 31.1419 90.9651 31.6013 90.962L40.0609 90.9059C49.1574 90.8449 49.2589 90.8449 50.1117 90.3776C51.4518 89.6666 52.3452 88.7727 52.9543 87.5335C53.5229 86.3755 53.5229 86.3755 53.5838 81.4591L53.6358 77.2404C53.6415 76.7813 53.4617 76.3393 53.1371 76.0145C52.467 75.3441 51.533 75.3441 50.8833 76.0145Z" fill="white"/>
</svg>
