<svg width="96" height="96" viewBox="0 0 96 96" fill="none" xmlns="http://www.w3.org/2000/svg">
<path d="M9.6 3.2V6.4H7.7C5.94 6.4 5.74 6.44 5.3 6.9C4.84 7.34 4.8 7.54 4.8 9.3V11.2H2.4H0V12.8V14.4H2.4H4.8V16.3C4.8 18.06 4.84 18.26 5.3 18.7C5.74 19.16 5.94 19.2 7.7 19.2H9.6V48V76.8H7.7C5.94 76.8 5.74 76.84 5.3 77.3C4.84 77.74 4.8 77.94 4.8 79.7V81.6H2.4H0V83.2V84.8H2.4H4.8V86.7C4.8 88.46 4.84 88.66 5.3 89.1C5.74 89.56 5.94 89.6 7.7 89.6H9.6V92.8V96H11.2H12.8V92.8V89.6H14.7C16.46 89.6 16.66 89.56 17.1 89.1C17.56 88.66 17.6 88.46 17.6 86.7V84.8H34.04H50.48L54.5 88.8C58.14 92.42 58.58 92.8 59.2 92.8C59.82 92.8 60.26 92.42 63.9 88.8L67.92 84.8H73.16H78.4V86.7C78.4 88.46 78.44 88.66 78.9 89.1C79.34 89.56 79.54 89.6 81.3 89.6H83.2V92.8V96H84.8H86.4V92.8V89.6H88.3C90.06 89.6 90.26 89.56 90.7 89.1C91.16 88.66 91.2 88.46 91.2 86.7V84.8H93.6H96V83.2V81.6H93.6H91.2V79.7C91.2 77.02 90.98 76.8 88.3 76.8H86.4V48V19.2H88.3C90.06 19.2 90.26 19.16 90.7 18.7C91.16 18.26 91.2 18.06 91.2 16.3V14.4H93.6H96V12.8V11.2H93.6H91.2V9.3C91.2 7.54 91.16 7.34 90.7 6.9C90.26 6.44 90.06 6.4 88.3 6.4H86.4V3.2V0H84.8H83.2V3.2V6.4H81.3C79.54 6.4 79.34 6.44 78.9 6.9C78.44 7.34 78.4 7.54 78.4 9.3V11.2H48H17.6V9.3C17.6 7.54 17.56 7.34 17.1 6.9C16.66 6.44 16.46 6.4 14.7 6.4H12.8V3.2V0H11.2H9.6V3.2ZM14.4 12.8V16H11.2H8V12.8V9.6H11.2H14.4V12.8ZM88 12.8V16H84.8H81.6V12.8V9.6H84.8H88V12.8ZM78.4 16.3C78.4 18.06 78.44 18.26 78.9 18.7C79.34 19.16 79.54 19.2 81.3 19.2H83.2V48V76.8H81.3C78.62 76.8 78.4 77.02 78.4 79.7V81.6H74.76H71.14L72.36 80.32C74.32 78.28 74.44 78.56 69.14 73.26C64.36 68.46 64.16 68.34 63.02 69.12C62.56 69.44 62.52 69.44 62.18 68.98C61.46 68.04 60.22 65.28 59.8 63.7C59.58 62.82 59.34 61.34 59.28 60.4C59.14 58.64 58.86 57.92 58.26 57.72C57.28 57.42 36.66 54.4 36.26 54.5C36.02 54.56 35.66 54.84 35.46 55.12C35.14 55.62 35.2 56.1 36.8 66.56C38.26 76.04 38.54 77.56 38.9 77.92C39.24 78.26 39.66 78.36 41.06 78.46C43.94 78.66 46.9 79.58 49.1 80.96L50.1 81.6H33.86H17.6V79.7C17.6 77.94 17.56 77.74 17.1 77.3C16.66 76.84 16.46 76.8 14.7 76.8H12.8V48V19.2H14.7C16.46 19.2 16.66 19.16 17.1 18.7C17.56 18.26 17.6 18.06 17.6 16.3V14.4H48H78.4V16.3ZM48.96 59.48C52.72 60.06 55.86 60.58 55.9 60.64C55.96 60.7 56.14 61.54 56.3 62.52C56.76 65.38 58.06 68.66 59.66 70.98L60.26 71.84L56.44 75.64L52.64 79.46L51.78 78.86C49.32 77.18 45.84 75.82 43.04 75.44C42.22 75.32 41.52 75.18 41.46 75.12C41.34 75.02 39.22 61.64 39.2 61C39.2 60.84 40.96 62.46 43.1 64.6C45.72 67.2 46.9 68.54 46.74 68.64C46.6 68.72 46.12 68.8 45.66 68.8H44.8V70.42V72.06L46.2 71.94C48 71.78 49.5 71.12 50.7 69.9C51.92 68.7 52.58 67.2 52.74 65.4L52.86 64H51.22H49.6V64.84C49.6 65.32 49.52 65.8 49.44 65.94C49.34 66.1 48 64.92 45.4 62.3C43.26 60.16 41.64 58.4 41.8 58.4C41.96 58.42 45.18 58.9 48.96 59.48ZM66.9 75.6L69.7 78.4L64.44 83.66L59.2 88.9L56.36 86.04L53.5 83.2L58.7 78C61.56 75.14 63.94 72.8 64 72.8C64.06 72.8 65.36 74.06 66.9 75.6ZM14.4 83.2V86.4H11.2H8V83.2V80H11.2H14.4V83.2ZM88 83.2V86.4H84.8H81.6V83.2V80H84.8H88V83.2Z" fill="white"/>
<path d="M21.3 35.7L20.8 36.18V43.2V50.22L21.3 50.7C21.76 51.18 21.92 51.2 24.02 51.2C26.9 51.2 27.64 50.98 28.9 49.7C30.64 47.96 30.9 45.68 29.56 43.74C29.18 43.2 29.18 43.2 29.56 42.64C30.9 40.72 30.64 38.44 28.9 36.7C27.64 35.42 26.9 35.2 24.02 35.2C21.92 35.2 21.76 35.22 21.3 35.7ZM26.7 38.9C27.02 39.2 27.2 39.62 27.2 40C27.2 41.02 26.44 41.6 25.1 41.6H24V40V38.4H25.1C26.02 38.4 26.3 38.48 26.7 38.9ZM26.7 45.3C27.02 45.6 27.2 46.02 27.2 46.4C27.2 47.42 26.44 48 25.1 48H24V46.4V44.8H25.1C26.02 44.8 26.3 44.88 26.7 45.3Z" fill="white"/>
<path d="M32.5 35.7L32 36.18V43.7V51.2H33.6H35.2V48V44.8H35.68C36.62 44.8 38.1 47.72 38.34 50.02L38.46 51.2H40.02H41.6V50.44C41.6 49.12 41.02 46.94 40.28 45.44L39.58 44L40.36 43.1C42.12 41.1 42.02 38.6 40.1 36.7C38.84 35.42 38.1 35.2 35.22 35.2C33.12 35.2 32.96 35.22 32.5 35.7ZM37.9 38.9C38.22 39.2 38.4 39.62 38.4 40C38.4 41.02 37.64 41.6 36.3 41.6H35.2V40V38.4H36.3C37.22 38.4 37.5 38.48 37.9 38.9Z" fill="white"/>
<path d="M46.4 35.46C45.42 35.78 43.74 37.5 43.44 38.5199C43.28 39.08 43.2 41.2 43.2 45.28V51.2H44.8H46.4V48.8V46.4H48H49.6V48.8V51.2H51.2H52.8V45.28C52.8 41.28 52.72 39.08 52.56 38.5599C52.22 37.38 50.8 35.9 49.66 35.5199C48.6 35.16 47.42 35.1399 46.4 35.46ZM49.1 38.9C49.56 39.34 49.6 39.54 49.6 41.3V43.2H48H46.4V41.3C46.4 39.54 46.44 39.34 46.9 38.9C47.2 38.58 47.62 38.4 48 38.4C48.38 38.4 48.8 38.58 49.1 38.9Z" fill="white"/>
<path d="M54.9 35.7L54.4 36.18V43.7V51.2H56H57.6L57.62 47.44V43.7L59.4 47.24C60.38 49.18 61.36 50.88 61.58 51C62.24 51.34 63 51.22 63.5 50.7L64 50.22V42.7V35.2H62.4H60.8L60.78 38.94V42.7L59 39.16C58.02 37.22 57.04 35.52 56.82 35.4C56.16 35.06 55.4 35.18 54.9 35.7Z" fill="white"/>
<path d="M66.1 35.7L65.6 36.18V43.2V50.22L66.1 50.7C66.56 51.18 66.72 51.2 68.82 51.2C71.7 51.2 72.44 50.98 73.7 49.7C75.08 48.34 75.2 47.82 75.2 43.2C75.2 38.58 75.08 38.06 73.7 36.7C72.44 35.42 71.7 35.2 68.82 35.2C66.72 35.2 66.56 35.22 66.1 35.7ZM71.5 38.9C72 39.38 72 39.42 72 43.2C72 46.98 72 47.02 71.5 47.5C71.1 47.92 70.82 48 69.9 48H68.8V43.2V38.4H69.9C70.82 38.4 71.1 38.48 71.5 38.9Z" fill="white"/>
</svg>
