<svg width="104" height="105" viewBox="0 0 104 105" fill="none" xmlns="http://www.w3.org/2000/svg">
<path d="M44.9974 0.933899C31.6386 3.48167 22.3238 15.1286 22.9827 28.4817C23.687 42.7674 35.3191 53.8457 49.6093 53.8457C55.5844 53.8457 60.8552 52.0714 65.6716 48.4317C72.919 42.9722 77.0311 33.6455 76.0769 24.842C74.8501 13.2633 67.1938 4.27785 56.1069 1.36611C53.3807 0.660923 47.6782 0.433445 44.9974 0.933899ZM53.5397 8.25875C59.1513 9.4189 64.1722 13.2633 66.7394 18.3816C68.3752 21.6801 68.8523 23.6819 68.8523 27.2306C68.8523 30.7793 68.3752 32.7811 66.7394 36.0795C64.1494 41.2433 59.1058 45.065 53.3807 46.2251C50.8361 46.7483 46.7013 46.5891 44.2704 45.8839C39.2722 44.4508 34.9329 40.9249 32.4792 36.307C26.436 24.9103 32.9336 11.0568 45.6335 8.21325C47.451 7.80379 51.4723 7.82654 53.5397 8.25875Z" fill="white"/>
<path d="M75.6226 54.0958C71.9421 54.528 67.3983 56.2796 64.2404 58.4179C62.4001 59.669 59.742 62.1941 58.3334 64.0594C56.8567 66.0157 54.8574 70.0649 54.1759 72.5444C52.6083 78.0267 53.0172 84.1686 55.2664 89.3779C58.447 96.7483 64.5357 101.935 72.601 104.164C74.1231 104.574 74.9864 104.665 78.576 104.665C82.4383 104.665 82.9608 104.619 85.0509 104.05C87.7091 103.322 90.9124 101.844 93.2071 100.251C95.1836 98.8866 98.0008 96.0886 99.4093 94.0867C100.909 91.9712 102.59 88.3315 103.272 85.761C104.044 82.8037 104.226 78.1177 103.703 75.0694C101.908 64.7418 93.775 56.3706 83.6424 54.437C81.2342 53.9821 77.7127 53.8228 75.6226 54.0958ZM82.8245 61.6936C89.0268 63.1267 94.0477 67.8583 96.0696 74.205C96.8421 76.6163 96.9557 80.8474 96.3423 83.4407C95.5017 86.8756 94.0931 89.4916 91.6622 92.0167C89.2085 94.5872 86.2778 96.2478 82.6882 97.1122C80.0982 97.7264 75.8725 97.6127 73.4643 96.8392C67.0802 94.8147 62.4683 89.9011 60.9234 83.4634C60.4009 81.2114 60.4463 77.2077 61.0597 74.8874C63.2407 66.5389 71.0333 60.7837 79.4848 61.2614C80.5526 61.3296 82.052 61.5344 82.8245 61.6936Z" fill="white"/>
<path d="M76.7585 66.6303C76.3268 66.926 75.7362 67.6084 75.4408 68.1771C74.941 69.1781 74.9183 69.36 74.9864 74.6603C75.0546 79.3237 75.1227 80.2336 75.4408 80.8478C75.9179 81.7122 83.8923 87.4447 85.0736 87.7632C86.5277 88.1726 88.4133 87.3082 89.1403 85.9206C89.3221 85.5566 89.4811 84.8287 89.4811 84.3282C89.4811 82.5539 88.9813 81.9624 85.4599 79.4829L82.2111 77.1626V72.9997C82.2111 68.3591 82.052 67.6767 80.7798 66.7668C79.712 65.9933 77.7809 65.9478 76.7585 66.6303Z" fill="white"/>
<path d="M42.9072 58.327C37.5683 58.7365 31.3433 59.7829 26.436 61.1478C11.6686 65.1969 1.96765 72.9085 0.19557 81.9622C0.0365378 82.8038 -0.0316191 85.2606 0.0138188 88.6501C0.0819757 93.9049 0.0819757 94.0186 0.695388 95.2925C1.46783 96.9531 3.03544 98.5227 4.69392 99.2961L5.98891 99.9103L28.208 99.9786C48.4279 100.024 50.4953 100.001 51.2224 99.6601C52.3583 99.1141 52.9717 98.1132 53.0853 96.6346C53.1989 95.0423 52.5855 94.0186 51.086 93.2452L50.0864 92.7447H28.9351C12.7819 92.7447 7.71555 92.6765 7.51108 92.4717C7.3066 92.267 7.23845 90.9021 7.23845 87.7402C7.23845 83.8957 7.3066 83.0768 7.67011 81.9849C9.55578 76.5027 17.4165 71.2024 28.0717 68.1996C33.706 66.6073 39.613 65.7429 46.0652 65.5154C50.768 65.3561 51.654 65.1059 52.6309 63.6273C53.3125 62.6036 53.2671 60.6701 52.4946 59.6009C51.6313 58.3725 50.8361 58.1678 47.1784 58.2133C45.4063 58.236 43.4752 58.2815 42.9072 58.327Z" fill="white"/>
</svg>
